<?xml version="1.0" encoding="utf-8"?>
<!-- Generator: Adobe Illustrator 21.1.0, SVG Export Plug-In . SVG Version: 6.00 Build 0)  -->
<svg version="1.1" id="Capa_1" xmlns="http://www.w3.org/2000/svg" xmlns:xlink="http://www.w3.org/1999/xlink" x="0px" y="0px"
	 viewBox="0 0 750 500" style="enable-background:new 0 0 750 500;" xml:space="preserve">
<style type="text/css">
	.st0{fill:none;}
	.st1{fill:#434343;}
	.st2{clip-path:url(#XMLID_4_);fill:url(#XMLID_5_);}
	.st3{clip-path:url(#XMLID_4_);fill:url(#XMLID_6_);}
	.st4{clip-path:url(#XMLID_4_);fill:url(#XMLID_7_);}
	.st5{clip-path:url(#XMLID_4_);}
	.st6{fill:#EAECEC;}
	.st7{fill:#2A1E17;}
	.st8{fill:#F9865F;}
	.st9{fill:#FF6D66;}
	.st10{fill:#A0C6F4;}
	.st11{fill:#FAD8B0;}
	.st12{fill:#FFE1C0;}
	.st13{fill:none;stroke:#2A1E17;stroke-linecap:round;stroke-linejoin:round;stroke-miterlimit:10;}
	.st14{fill:none;stroke:#FF6D66;stroke-linecap:round;stroke-linejoin:round;stroke-miterlimit:10;}
	.st15{fill:none;stroke:#FAD8B0;stroke-miterlimit:10;}
	.st16{fill:none;stroke:#A0C6F4;stroke-linecap:round;stroke-linejoin:round;stroke-miterlimit:10;}
	.st17{fill:#91BA83;}
	.st18{clip-path:url(#XMLID_4_);fill:url(#XMLID_9_);}
</style>
<pattern  width="28.8" height="28.8" patternUnits="userSpaceOnUse" id="_x31_0_ppp_20_x25__2" viewBox="1.4 -30.2 28.8 28.8" style="overflow:visible;">
	<g id="XMLID_66_">
		<rect id="XMLID_131_" x="1.4" y="-30.2" class="st0" width="28.8" height="28.8"/>
		<g id="XMLID_75_">
			<circle id="XMLID_130_" class="st1" cx="30.2" cy="-1.4" r="1.4"/>
			<circle id="XMLID_128_" class="st1" cx="15.8" cy="-1.4" r="1.4"/>
			<circle id="XMLID_81_" class="st1" cx="30.2" cy="-15.8" r="1.4"/>
			<circle id="XMLID_80_" class="st1" cx="15.8" cy="-15.8" r="1.4"/>
			<circle id="XMLID_79_" class="st1" cx="8.6" cy="-8.6" r="1.4"/>
			<circle id="XMLID_78_" class="st1" cx="23" cy="-8.6" r="1.4"/>
			<circle id="XMLID_77_" class="st1" cx="8.6" cy="-23" r="1.4"/>
			<circle id="XMLID_76_" class="st1" cx="23" cy="-23" r="1.4"/>
		</g>
		<g id="XMLID_72_">
			<circle id="XMLID_74_" class="st1" cx="1.4" cy="-1.4" r="1.4"/>
			<circle id="XMLID_73_" class="st1" cx="1.4" cy="-15.8" r="1.4"/>
		</g>
		<g id="XMLID_69_">
			<circle id="XMLID_71_" class="st1" cx="30.2" cy="-30.2" r="1.4"/>
			<circle id="XMLID_70_" class="st1" cx="15.8" cy="-30.2" r="1.4"/>
		</g>
		<g id="XMLID_67_">
			<circle id="XMLID_68_" class="st1" cx="1.4" cy="-30.2" r="1.4"/>
		</g>
	</g>
</pattern>
<g id="XMLID_8_">
	<defs>
		<rect id="XMLID_2_" width="750" height="500"/>
	</defs>
	<clipPath id="XMLID_4_">
		<use xlink:href="#XMLID_2_"  style="overflow:visible;"/>
	</clipPath>
	
		<pattern  id="XMLID_5_" xlink:href="#_x31_0_ppp_20_x25__2" patternTransform="matrix(-0.7102 0.7102 -0.7102 -0.7102 -18676.5 -7228.7788)">
	</pattern>
	<circle id="XMLID_127_" class="st2" cx="143.2" cy="348.4" r="72.3"/>
	
		<pattern  id="XMLID_6_" xlink:href="#_x31_0_ppp_20_x25__2" patternTransform="matrix(-0.552 0.552 -0.552 -0.552 -16268.2852 -7287.8604)">
	</pattern>
	<circle id="XMLID_42_" class="st3" cx="19.9" cy="14.9" r="56.2"/>
	
		<pattern  id="XMLID_7_" xlink:href="#_x31_0_ppp_20_x25__2" patternTransform="matrix(-0.7102 -0.7102 0.7102 -0.7102 -8113.1646 -18329.0039)">
	</pattern>
	<circle id="XMLID_17_" class="st4" cx="677.7" cy="492.6" r="72.3"/>
	<g class="st5">
		<path class="st6" d="M282.5,402"/>
		<path class="st7" d="M431.9,236.1"/>
		<path class="st8" d="M514.6,295.9"/>
		<circle class="st7" cx="298.7" cy="312.7" r="2.6"/>
		<circle class="st9" cx="329.5" cy="145.8" r="5.6"/>
		<g>
			<path class="st10" d="M227.4,102.9c-1.4,0-2.5,1.1-2.5,2.5s1.1,2.5,2.5,2.5s2.5-1.1,2.5-2.5S228.8,102.9,227.4,102.9L227.4,102.9
				z"/>
		</g>
		<circle class="st11" cx="558.8" cy="407.6" r="2.5"/>
		<circle class="st9" cx="238.1" cy="366.3" r="2.5"/>
		<circle class="st9" cx="446.6" cy="378.6" r="3.4"/>
		<rect x="500" y="200.4" class="st12" width="8.9" height="8.9"/>
		<g>
			<polygon class="st10" points="501.2,321.1 503.9,325.7 506.5,330.3 501.2,330.3 495.9,330.3 498.5,325.7 			"/>
		</g>
		<g>
			<rect x="201.4" y="194.7" class="st9" width="8.9" height="8.1"/>
			<polyline class="st13" points="201.4,189.5 201.4,194.7 196.1,194.7 			"/>
		</g>
		<g>
			<rect x="493.7" y="103.3" class="st11" width="8.9" height="8.1"/>
			<polyline class="st13" points="493.7,98.1 493.7,103.3 488.4,103.3 			"/>
		</g>
		<line class="st14" x1="143.1" y1="252.8" x2="150.5" y2="252.8"/>
		<line class="st14" x1="558.8" y1="163" x2="566.3" y2="163"/>
		<line class="st15" x1="358.7" y1="111.8" x2="366.1" y2="111.8"/>
		<line class="st15" x1="573.1" y1="201.7" x2="580.4" y2="203"/>
		<line class="st16" x1="279.9" y1="388" x2="287.3" y2="388"/>
		<circle class="st17" cx="589.1" cy="294.9" r="2.5"/>
		<circle class="st17" cx="124.7" cy="176.3" r="2.5"/>
		<rect x="-275" y="-20" class="st0" width="900" height="500"/>
	</g>
	
		<pattern  id="XMLID_9_" xlink:href="#_x31_0_ppp_20_x25__2" patternTransform="matrix(-0.7102 0.7102 -0.7102 -0.7102 -18676.5 -7228.7788)">
	</pattern>
	<circle id="XMLID_1_" class="st18" cx="616.4" cy="93.7" r="43.6"/>
</g>
</svg>
