<?xml version="1.0" encoding="utf-8"?>
<!-- Generator: Adobe Illustrator 21.1.0, SVG Export Plug-In . SVG Version: 6.00 Build 0)  -->
<svg version="1.1" xmlns="http://www.w3.org/2000/svg" xmlns:xlink="http://www.w3.org/1999/xlink" x="0px" y="0px"
	 viewBox="0 0 750 500" style="enable-background:new 0 0 750 500;" xml:space="preserve">
<style type="text/css">
	.st0{display:none;}
	.st1{display:inline;}
	.st2{fill:#EBEBEB;}
	.st3{fill:#F5F5F5;}
	.st4{fill:#E0E0E0;}
	.st5{fill:#FFFFFF;}
	.st6{fill:#263238;}
	.st7{fill:#E8505B;}
	.st8{opacity:0.2;}
	.st9{fill:#455A64;}
	.st10{fill:#FFBE9D;}
	.st11{fill:#EB996E;}
	.st12{opacity:0.3;}
</style>
<g id="Background_Complete" class="st0">
	<g class="st1">
		<g>
			<path class="st2" d="M515.3,370.4c-0.3,0.9,10,40,10,40l7.1-1.5l-9.7-38.5H515.3z"/>
		</g>
		<g>
			<polygon class="st3" points="570,364.8 555.9,410.4 564.1,410.4 577.6,368 			"/>
		</g>
		<g>
			<polygon class="st2" points="582.9,357.7 566.7,410.4 575,410.4 590.6,360.9 			"/>
		</g>
		<g>
			<polygon class="st4" points="520.3,407.1 528.5,435.7 570,435.7 577.6,407.1 			"/>
		</g>
		<g>
			<g>
				<path class="st4" d="M541.7,407.1c0,0,0-0.1-0.1-0.3c-0.1-0.2-0.1-0.5-0.2-0.9c-0.2-0.8-0.5-1.9-0.8-3.4
					c-0.7-3-1.6-7.2-2.8-12.5c-2.4-10.6-5.6-25.2-9.3-41.5l0.3,0.2c-1.2,0-2.4,0-3.7,0c-1.2,0-2.5,0-3.6,0l0.3-0.3
					c3.7,16.3,7,31,9.4,41.6c1.2,5.3,2.1,9.5,2.8,12.5c0.3,1.4,0.5,2.6,0.7,3.4c0.1,0.4,0.1,0.7,0.2,0.9c0,0.2,0.1,0.3,0,0.3
					c0,0,0-0.1-0.1-0.3c-0.1-0.2-0.1-0.5-0.2-0.9c-0.2-0.8-0.5-1.9-0.8-3.4c-0.7-3-1.7-7.2-2.9-12.5c-2.4-10.6-5.8-25.2-9.5-41.5
					l-0.1-0.3l0.3,0c1.1,0,2.4,0,3.6,0c1.3,0,2.5,0,3.7,0h0.2l0,0.2c3.6,16.3,6.8,31,9.2,41.6c1.1,5.3,2.1,9.5,2.7,12.5
					c0.3,1.4,0.5,2.6,0.7,3.4c0.1,0.4,0.1,0.7,0.2,0.9C541.7,407,541.7,407.1,541.7,407.1z"/>
			</g>
		</g>
	</g>
	<g class="st1">
		<g>
			<g>
				<rect x="206.1" y="74.8" class="st3" width="70.2" height="48.9"/>
			</g>
			<g>
				<rect x="206.1" y="74.8" class="st4" width="70.2" height="6.1"/>
			</g>
			<g>
				<ellipse class="st5" cx="209.2" cy="78" rx="0.7" ry="0.8"/>
			</g>
			<g>
				<ellipse class="st5" cx="212.2" cy="78" rx="0.7" ry="0.8"/>
			</g>
			<g>
				<ellipse class="st5" cx="215.2" cy="78" rx="0.7" ry="0.8"/>
			</g>
		</g>
		<rect x="212.8" y="86.9" class="st4" width="10" height="24"/>
		<rect x="228.2" y="86.9" class="st2" width="10" height="24"/>
		<rect x="243.7" y="86.9" class="st5" width="10" height="24"/>
		<rect x="259.1" y="87.1" class="st2" width="10" height="24"/>
		<rect x="211.6" y="113.5" class="st2" width="60.7" height="5.5"/>
		<polygon class="st4" points="264,117.2 265.3,123.8 266.4,121.9 268.7,125.2 269.8,124.5 267.5,121.2 269.6,120.9 		"/>
	</g>
	<g class="st1">
		<g>
			<rect x="141.3" y="140.6" class="st3" width="122.9" height="85.6"/>
		</g>
		<g>
			<rect x="141.3" y="140.6" class="st4" width="122.9" height="10.7"/>
		</g>
		<g>
			<ellipse class="st5" cx="146.7" cy="146.2" rx="1.3" ry="1.3"/>
		</g>
		<g>
			<ellipse class="st5" cx="151.9" cy="146.2" rx="1.3" ry="1.3"/>
		</g>
		<g>
			<ellipse class="st5" cx="157.1" cy="146.2" rx="1.3" ry="1.3"/>
		</g>
	</g>
	<g class="st1">
		<polygon class="st4" points="584.7,175.7 584.7,199.3 623,200.3 622.4,176.4 		"/>
		<polygon class="st2" points="584.7,175.7 584.7,173.4 622.4,173.9 622.4,177.2 		"/>
		<polygon class="st2" points="588.1,181.7 588.5,186.5 593.6,186.5 593.8,181.9 		"/>
		<polygon class="st3" points="595.7,184.9 595.4,182.9 606.8,183.7 606.5,185.7 		"/>
		<polygon class="st2" points="613,182.5 613.9,187.5 619.8,187.2 619.4,182.9 		"/>
		<polygon class="st2" points="588.2,189.6 588.6,194.4 593.7,194.4 593.8,189.8 		"/>
		<polygon class="st3" points="595.7,192.5 595.5,190.8 603.8,191.6 603.6,193.3 		"/>
		<polygon class="st2" points="613.1,190.5 614,195.4 619.8,195.1 619.5,190.8 		"/>
	</g>
</g>
<g id="Background_Simple" class="st0">
	<g class="st1">
		<g>
			<path class="st3" d="M405,172.1c25.5-2,32-4.6,57.3-8.2c31.7-4.5,47.5-8.5,78.9-2.5c31.4,6,62.3,24.6,74.5,54.2
				c15.3,37.2-3.6,81.7-34.7,107.1c-31.1,25.5-71.8,35.7-111.4,42.9c-34.4,6.2-69.3,10.6-104.2,8.8c-34.9-1.8-69.9-10.1-100-27.9
				c-37.5-22.1-65.3-57.6-86.7-95.5c-15.5-27.5-28.4-57.4-29.7-88.9c-1.3-31.5,10.6-64.9,36.3-83.2c32.4-23,78.8-16.5,112,5.3
				c29.9,19.7,40.8,32.9,58.2,59.9c6.8,10.5,16.4,19,27.9,23.9C389.9,170.9,397.3,172.7,405,172.1z"/>
		</g>
	</g>
</g>
<g id="Floor">
	<g>
		<g>
			<path class="st6" d="M657.6,434.9c0,0.1-126.5,0.3-282.6,0.3c-156.1,0-282.6-0.1-282.6-0.3s126.5-0.3,282.6-0.3
				C531.1,434.6,657.6,434.7,657.6,434.9z"/>
		</g>
	</g>
</g>
<g id="Plant">
	<g>
		<g>
			<g>
				<g>
					<g>
						<path class="st7" d="M151.4,241.8c-6.6,0.6-10,8.4-9.8,15c0.1,6.6,2.4,13.2,1.3,19.6c-1.4,8.2-8.2,14.8-9.4,23.1
							c-1.5,9.7,4.9,18.9,6.3,28.6c0.7,4.7,0.2,9.7,1.7,14.3c2.5,7.7,10.8,13.1,18.8,12.2c8-0.9,14.9-8,15.6-16.1
							c0.6-7.5-3.6-14.9-2.5-22.4c0.8-5.5,4.4-10.6,4-16.1c-0.4-6.6-6.2-11.7-7.9-18.1c-1.7-6.4,0.8-13.2,0.4-19.8
							C169.3,250.3,163.3,241.6,151.4,241.8"/>
						<path class="st8" d="M151.4,241.8c-6.6,0.6-10,8.4-9.8,15c0.1,6.6,2.4,13.2,1.3,19.6c-1.4,8.2-8.2,14.8-9.4,23.1
							c-1.5,9.7,4.9,18.9,6.3,28.6c0.7,4.7,0.2,9.7,1.7,14.3c2.5,7.7,10.8,13.1,18.8,12.2c8-0.9,14.9-8,15.6-16.1
							c0.6-7.5-3.6-14.9-2.5-22.4c0.8-5.5,4.4-10.6,4-16.1c-0.4-6.6-6.2-11.7-7.9-18.1c-1.7-6.4,0.8-13.2,0.4-19.8
							C169.3,250.3,163.3,241.6,151.4,241.8"/>
					</g>
					<g>
						<g>
							<path class="st7" d="M114.6,296.9c-1.8,10.9,2.2,24,7.2,33.9c5,9.8,13.3,17.9,23.1,22.8c1.1,0.6,2.5,1,3.5,0.3
								c0.8-0.6,1-1.7,1.1-2.7c0.8-11.5-2.2-23.3-8.4-33C134.8,308.5,125.4,300.9,114.6,296.9"/>
						</g>
					</g>
					<g>
						<g>
							<g>
								<path class="st6" d="M157.2,377.3c0,0-0.1-0.2-0.3-0.6c-0.2-0.5-0.4-1.1-0.7-1.8c-0.6-1.6-1.4-3.9-2.5-6.8
									c-2.1-5.7-5.4-13.4-9.5-21.7c-4.2-8.3-8.4-15.5-11.7-20.6c-1.6-2.6-3-4.6-3.9-6c-0.4-0.7-0.8-1.2-1.1-1.6
									c-0.2-0.4-0.4-0.6-0.3-0.6c0,0,0.2,0.2,0.4,0.5c0.3,0.4,0.7,0.9,1.2,1.6c1,1.4,2.4,3.4,4.1,5.9c3.4,5.1,7.7,12.3,11.9,20.6
									c4.2,8.3,7.3,16.1,9.4,21.9c1,2.9,1.8,5.2,2.3,6.8c0.2,0.8,0.4,1.4,0.6,1.9C157.2,377.1,157.3,377.3,157.2,377.3z"/>
							</g>
						</g>
					</g>
					<g>
						<g>
							<g>
								<path class="st6" d="M156.9,272.6c0,0,0,0.4,0.1,1.1c0,0.7,0,1.8,0,3c0,2.7,0,6.5,0,11.1c0,9.4,0,22.4,0.1,36.7
									c0.1,14.3,0.2,27.3,0.4,36.7c0.1,4.7,0.1,8.4,0.1,11.1c0,1.3,0,2.3,0,3c0,0.7,0,1.1,0,1.1c0,0-0.1-0.4-0.1-1.1
									c0-0.7-0.1-1.8-0.1-3c-0.1-2.7-0.2-6.5-0.3-11.1c-0.2-9.4-0.5-22.4-0.6-36.7c-0.1-14.3,0-27.3,0.1-36.7
									c0.1-4.7,0.2-8.4,0.2-11.1c0-1.3,0.1-2.3,0.1-3C156.9,272.9,156.9,272.6,156.9,272.6z"/>
							</g>
						</g>
					</g>
				</g>
			</g>
			<g>
				<polygon class="st9" points="141.3,362.1 144.6,434.1 167.6,434.1 170.2,365.4 				"/>
			</g>
		</g>
		<g>
			<g>
				<path class="st6" d="M169.5,380c0,0-0.4,0.2-1,0.4c-0.7,0.2-1.7,0.4-3,0.6c-1.3,0.1-2.8,0.2-4.5,0.1c-1.7-0.1-3.5-0.5-5.4-1
					c-1.9-0.5-3.6-1-5.3-1.2c-1.6-0.2-3.1-0.2-4.4,0c-2.5,0.4-3.7,1.5-3.8,1.4c0,0,0.3-0.3,0.9-0.7c0.6-0.4,1.6-0.8,2.8-1.1
					c1.3-0.3,2.8-0.3,4.5-0.1c1.7,0.2,3.5,0.7,5.3,1.2c3.7,1.1,7.2,1.3,9.7,1C167.9,380.3,169.4,379.9,169.5,380z"/>
			</g>
		</g>
		<g>
			<g>
				<path class="st6" d="M168.9,387.9c0,0-0.3-0.3-0.8-0.7c-0.6-0.4-1.5-0.9-2.8-1.1c-1.3-0.2-2.8,0-4.4,0.5
					c-1.6,0.5-3.3,1.3-5.3,1.8c-3.9,1-7.7,0.1-10-1c-1.2-0.6-2.1-1.1-2.6-1.6c-0.6-0.5-0.8-0.7-0.8-0.8c0.1-0.1,1.3,1,3.6,2
					c2.3,1,6,1.8,9.7,0.8c1.9-0.5,3.6-1.3,5.3-1.8c1.6-0.5,3.3-0.7,4.6-0.4c1.3,0.2,2.3,0.8,2.8,1.3c0.3,0.2,0.5,0.5,0.6,0.6
					C168.8,387.8,168.9,387.8,168.9,387.9z"/>
			</g>
		</g>
		<g>
			<g>
				<path class="st6" d="M169.1,397.7c0,0-0.1,0.1-0.3,0.1c-0.2,0.1-0.4,0.1-0.8,0.2c-0.7,0.1-1.8,0-2.9-0.4
					c-1.2-0.4-2.5-1.2-3.9-1.9c-1.5-0.7-3.1-1.3-5-1.8c-3.7-0.9-7.1-0.8-9.6-0.4c-2.4,0.3-3.9,0.9-3.9,0.8c0,0,0.3-0.2,1-0.4
					c0.7-0.2,1.6-0.5,2.9-0.7c2.5-0.5,6-0.6,9.7,0.3c1.9,0.4,3.6,1.1,5.1,1.9c1.5,0.8,2.7,1.5,3.9,2c1.1,0.5,2.1,0.6,2.8,0.6
					C168.8,397.7,169.1,397.6,169.1,397.7z"/>
			</g>
		</g>
		<g>
			<g>
				<path class="st6" d="M143.2,404.3c0,0,0.4,0.1,1,0.1c0.7,0,1.6-0.1,2.7-0.7c1.1-0.5,2.2-1.5,3.5-2.4c0.7-0.5,1.4-1,2.2-1.3
					c0.8-0.3,1.8-0.6,2.7-0.6c1.9-0.1,3.7,0.2,5.3,0.5c1.6,0.3,3,0.6,4.2,0.8c1.2,0.2,2.2,0.1,2.9,0.1c0.7-0.1,1.1-0.1,1.1-0.1
					c0,0-0.4,0.1-1,0.3c-0.7,0.1-1.7,0.2-2.9,0.1c-1.2-0.1-2.7-0.4-4.3-0.7c-1.6-0.3-3.4-0.6-5.2-0.5c-0.9,0.1-1.8,0.3-2.6,0.6
					c-0.8,0.3-1.5,0.8-2.2,1.2c-1.3,0.9-2.5,1.9-3.6,2.4c-1.1,0.5-2.2,0.6-2.9,0.5c-0.4,0-0.6-0.1-0.8-0.2
					C143.3,404.3,143.2,404.3,143.2,404.3z"/>
			</g>
		</g>
		<g>
			<g>
				<path class="st6" d="M168.8,410.5c0,0.1-1.2-0.9-3.6-0.9c-2.3-0.1-5.4,1.2-9,1.3c-3.6,0.2-6.9-0.2-9.1-0.8
					c-1.1-0.3-2-0.6-2.7-0.8c-0.6-0.2-0.9-0.4-0.9-0.4c0-0.1,1.4,0.4,3.7,0.9c2.3,0.5,5.5,0.9,9,0.7c1.8-0.1,3.4-0.4,4.9-0.7
					c1.5-0.3,2.9-0.6,4.1-0.5c1.2,0,2.1,0.4,2.7,0.7C168.6,410.2,168.8,410.5,168.8,410.5z"/>
			</g>
		</g>
	</g>
</g>
<g id="Windows">
	<g>
		<g>
			<g>
				<g>
					<rect x="304.1" y="62" class="st5" width="259.4" height="165.5"/>
				</g>
				<g>
					<g>
						<path class="st6" d="M563.5,227.5c0-1.7-0.1-64.4-0.2-165.5l0.2,0.2c-70.8,0-161.2,0-259.4,0.1h0l0.3-0.3
							c0,58.7,0,114.7,0,165.5l-0.2-0.2C456.5,227.4,561.3,227.5,563.5,227.5c-2.2,0-107,0.1-259.4,0.2l-0.2,0v-0.2
							c0-50.9,0-106.8,0-165.5v-0.3h0.3h0c98.2,0,188.6,0,259.4,0.1h0.2l0,0.2C563.6,163.1,563.5,225.8,563.5,227.5z"/>
					</g>
				</g>
			</g>
			<g>
				<polygon class="st7" points="304.1,66.7 303.9,75.2 563.2,75.6 563.5,66.7 				"/>
			</g>
			<g>
				<g>
					<polygon class="st6" points="546.6,101.2 545.7,154.9 587.2,156.1 588.4,101.7 					"/>
				</g>
				<g>
					<polygon class="st9" points="546.8,106.2 577.1,106.4 576.8,103.7 588.3,104.2 588.4,101.7 546.6,101.2 					"/>
				</g>
				<g>
					<polygon class="st7" points="548.4,103.7 548.4,105.1 556,105.1 555.6,103.7 					"/>
				</g>
				<g>
					<polygon class="st7" points="557.8,103.7 557.8,105.1 565.4,105.2 565,103.7 					"/>
				</g>
				<g>
					<polygon class="st7" points="567.4,103.9 567.4,105.3 575,105.3 574.6,103.9 					"/>
				</g>
				<g>
					<polygon class="st9" points="549.1,108.7 548.8,135.9 574.5,136.8 573.7,109.5 					"/>
				</g>
				<g>
					<g>
						<path class="st7" d="M573.6,111.2c0,0-0.3,0.4-0.9,1.2c-0.6,0.8-1.4,2-2.3,3.5c-0.5,0.8-1,1.6-1.7,2.5c-0.6,0.9-1.2,1.9-1.7,3
							c-0.5,1.1-1,2.3-1.6,3.5c-0.6,1.2-1.3,2.5-2.4,3.6l-0.3,0.3l-0.2-0.4c-0.9-1.8-1.7-3.8-2.3-5.9c-0.5-1.7-0.8-3.4-1-5l0.5,0.2
							c-2.1,2.1-3.3,4.8-4.5,7.1c-0.6,1.2-1.1,2.3-1.7,3.3c-0.6,1-1.1,1.9-1.6,2.7c-1,1.6-1.7,2.9-2.3,3.9c-0.6,0.9-0.9,1.4-0.9,1.4
							c0,0,0.2-0.5,0.7-1.5c0.6-1,1.3-2.3,2.2-4c0.5-0.8,1-1.8,1.5-2.8c0.5-1,1.1-2.1,1.6-3.3c1.1-2.3,2.3-5,4.6-7.3l0.5-0.5
							l0.1,0.7c0.1,1.6,0.5,3.3,1,4.9c0.6,2.1,1.4,4,2.2,5.8l-0.5-0.1c1-1,1.7-2.2,2.3-3.4c0.6-1.2,1.1-2.4,1.6-3.5
							c0.5-1.1,1.1-2.2,1.8-3c0.6-0.9,1.2-1.7,1.7-2.4c1-1.5,1.9-2.7,2.5-3.4C573.2,111.5,573.6,111.2,573.6,111.2z"/>
					</g>
				</g>
				<g>
					
						<rect x="575.6" y="111.1" transform="matrix(1 8.118036e-03 -8.118036e-03 1 0.9343 -4.6827)" class="st9" width="3.3" height="3.3"/>
				</g>
				<g>
					<polygon class="st7" points="579.8,111.7 580,113.2 586.3,113.1 586.2,112.1 					"/>
				</g>
				<g>
					
						<rect x="576.1" y="116" transform="matrix(1 8.148213e-03 -8.148213e-03 1 0.9781 -4.7037)" class="st9" width="3.3" height="3.3"/>
				</g>
				<g>
					<polygon class="st7" points="580.3,116.6 580.4,118.1 586.8,118.1 586.7,117 					"/>
				</g>
				<g>
					
						<rect x="575.9" y="121.7" transform="matrix(1 8.148459e-03 -8.148459e-03 1 1.0244 -4.7024)" class="st9" width="3.3" height="3.3"/>
				</g>
				<g>
					<polygon class="st7" points="580.1,122.3 580.3,123.8 586.6,123.8 586.5,122.7 					"/>
				</g>
				<g>
					<polygon class="st9" points="549.5,138.7 580.4,139.3 580.3,142.1 549.3,140.9 					"/>
				</g>
				<g>
					<polygon class="st7" points="580.4,139.3 584.1,139.3 584,142.1 580.3,142.1 					"/>
				</g>
				<g>
					<polygon class="st9" points="549.9,143.8 584.2,144.4 584.2,147.5 549.8,146 					"/>
				</g>
				<g>
					<polygon class="st7" points="566.3,144 570,144.1 569.9,146.8 566.2,146.8 					"/>
				</g>
				<g>
					<polygon class="st9" points="550.4,148.7 581.4,149.3 581.3,152.1 550.2,151 					"/>
				</g>
				<g>
					<polygon class="st7" points="581.4,149.3 585,149.3 584.9,152.1 581.3,152.1 					"/>
				</g>
			</g>
			<g>
				<g>
					<g>
						<polygon class="st6" points="287.8,64 293.7,63.7 294.2,147.3 288.7,146.5 						"/>
					</g>
				</g>
				<g>
					<polygon class="st7" points="288.9,67 289.5,71 291.6,70.8 291.9,66.5 					"/>
				</g>
				<g>
					<polygon class="st7" points="289.7,108.3 290.2,112.3 292.4,112.1 292.7,107.8 					"/>
				</g>
				<g>
					<polygon class="st7" points="289.1,73.6 292.5,73.4 292.8,77.7 289.2,77.7 					"/>
				</g>
				<g>
					<polygon class="st7" points="289.4,87.2 292.3,87.1 292.6,91.8 289.5,91.7 					"/>
				</g>
				<g>
					<polygon class="st7" points="289.6,94 292.5,93.9 292.8,98.6 289.7,98.4 					"/>
				</g>
				<g>
					<polygon class="st7" points="289.8,101 292.7,100.9 293,105.6 289.9,105.4 					"/>
				</g>
				<g>
					<polygon class="st7" points="290,116.2 292.9,116.1 293.2,120.8 290.1,120.6 					"/>
				</g>
				<g>
					<polygon class="st7" points="289.3,80.2 292.7,80.6 292.9,85 289.6,85 					"/>
				</g>
			</g>
			<g>
				<rect x="304.1" y="62" class="st6" width="259.4" height="4.7"/>
			</g>
			<g>
				
					<ellipse transform="matrix(0.997 -7.734753e-02 7.734753e-02 0.997 -4.0422 24.0154)" class="st7" cx="308" cy="64.2" rx="0.9" ry="0.9"/>
			</g>
			<g>
				
					<ellipse transform="matrix(0.997 -7.734364e-02 7.734364e-02 0.997 -4.0357 24.3043)" class="st7" cx="311.8" cy="64.3" rx="0.9" ry="0.9"/>
			</g>
			<g>
				
					<ellipse transform="matrix(0.997 -7.734777e-02 7.734777e-02 0.997 -4.0274 24.5957)" class="st7" cx="315.5" cy="64.3" rx="0.9" ry="0.9"/>
			</g>
			<g>
				<polygon class="st9" points="320.8,63.5 321,65.3 333.5,65.3 333.1,63.6 				"/>
			</g>
			<g>
				<polygon class="st9" points="336.1,63.8 336.3,65.5 345,65.4 344.7,63.6 				"/>
			</g>
			<g>
				<polygon class="st9" points="349.4,64 349.6,65.8 358.3,65.8 358,64.1 				"/>
			</g>
		</g>
		<g>
			<g>
				<g>
					<g>
						<polygon class="st5" points="343.4,96 349.3,237.1 523.4,238.1 521.6,100 						"/>
					</g>
					<g>
						<g>
							<path class="st9" d="M343.4,96c0,0,0.3,0,0.8,0c0.6,0,1.4,0,2.5,0c2.2,0,5.4,0.1,9.6,0.2c8.4,0.2,20.8,0.4,36.4,0.8
								c31.3,0.7,75.9,1.6,128.8,2.8l0.2,0l0,0.2c0.6,41.2,1.2,88.1,1.9,137.7c0,0.2,0,0.3,0,0.5l0,0.3l-0.3,0
								c-64.4-0.4-124.3-0.8-174.1-1.1l-0.2,0l0-0.2c-1.7-42.6-3.2-77.9-4.2-102.6c-0.5-12.3-0.9-22-1.1-28.5
								c-0.1-3.3-0.2-5.8-0.3-7.5C343.4,96.8,343.4,96,343.4,96s0.1,0.9,0.1,2.6c0.1,1.7,0.2,4.2,0.3,7.5c0.3,6.6,0.7,16.3,1.2,28.6
								c1.1,24.6,2.6,59.9,4.4,102.4l-0.2-0.2c49.8,0.3,109.7,0.6,174.1,1l-0.3,0.3c0-0.2,0-0.3,0-0.5c-0.7-49.6-1.3-96.5-1.8-137.7
								l0.2,0.2c-52.8-1.2-97.3-2.3-128.6-3c-15.7-0.4-28-0.7-36.5-0.9c-4.2-0.1-7.5-0.2-9.7-0.2c-1.1,0-1.9-0.1-2.5-0.1
								C343.7,96,343.4,96,343.4,96z"/>
						</g>
					</g>
				</g>
				<g>
					<polygon class="st6" points="343.3,94.6 343.5,100 521.6,100 521.6,95.3 					"/>
				</g>
				<g>
					<g>
						<polygon class="st4" points="495.2,113 496.3,121.6 513.7,121.7 512.9,113.7 						"/>
					</g>
					<g>
						<polygon class="st9" points="495.2,115.1 512.9,115.8 512.9,113.7 495.2,113 						"/>
					</g>
					<g>
						<g>
							
								<rect x="499.1" y="116.5" transform="matrix(0.9999 -1.634243e-02 1.634243e-02 0.9999 -1.8593 8.1946)" class="st7" width="2.7" height="2.7"/>
						</g>
						<g>
							
								<rect x="498.7" y="117" transform="matrix(0.9999 -1.634182e-02 1.634182e-02 0.9999 -1.8665 8.1874)" class="st6" width="2.7" height="2.7"/>
						</g>
						<g>
							
								<rect x="497.8" y="117.7" transform="matrix(0.9999 -1.634237e-02 1.634237e-02 0.9999 -1.8786 8.1739)" class="st7" width="2.7" height="2.7"/>
						</g>
					</g>
					<g>
						<polygon class="st6" points="504.5,117.7 504.4,119.1 512.1,118.9 512,118 						"/>
					</g>
				</g>
				<g>
					<g>
						<polygon class="st4" points="495.3,123.1 496.5,131.7 513.9,131.8 513.1,123.8 						"/>
					</g>
					<g>
						<polygon class="st9" points="495.4,125.1 513.1,125.9 513.1,123.8 495.3,123.1 						"/>
					</g>
					<g>
						<g>
							
								<rect x="499.3" y="126.6" transform="matrix(0.9999 -1.634237e-02 1.634237e-02 0.9999 -2.0239 8.1986)" class="st7" width="2.7" height="2.7"/>
						</g>
						<g>
							
								<rect x="498.9" y="127" transform="matrix(0.9999 -1.634182e-02 1.634182e-02 0.9999 -2.031 8.1915)" class="st6" width="2.7" height="2.7"/>
						</g>
						<g>
							
								<rect x="498" y="127.8" transform="matrix(0.9999 -1.630522e-02 1.630522e-02 0.9999 -2.0387 8.1593)" class="st7" width="2.7" height="2.7"/>
						</g>
					</g>
					<g>
						<polygon class="st6" points="504.6,127.8 504.5,129.2 512.2,129 512.1,128.1 						"/>
					</g>
				</g>
				<g>
					<g>
						
							<rect x="361.4" y="138.6" transform="matrix(1 -4.237149e-03 4.237149e-03 1 -0.5927 1.5415)" class="st9" width="4.2" height="4.2"/>
					</g>
					<g>
						
							<rect x="505" y="139.7" transform="matrix(1 -4.237048e-03 4.237048e-03 1 -0.5961 2.15)" class="st9" width="4.2" height="4.2"/>
					</g>
					<g>
						
							<rect x="504.5" y="202.8" transform="matrix(1 -4.260750e-03 4.260750e-03 1 -0.8683 2.1605)" class="st9" width="4.2" height="4.2"/>
					</g>
					<g>
						
							<rect x="364" y="198.1" transform="matrix(1 -4.261055e-03 4.261055e-03 1 -0.8496 1.5619)" class="st9" width="4.2" height="4.2"/>
					</g>
					<g>
						
							<rect x="435.3" y="140.4" transform="matrix(4.233264e-03 1 -1 4.233264e-03 576.5972 -295.5641)" class="st9" width="2.8" height="2.8"/>
					</g>
					<g>
						
							<rect x="362.7" y="170.6" transform="matrix(4.230656e-03 1 -1 4.230656e-03 534.525 -192.8209)" class="st9" width="2.8" height="2.8"/>
					</g>
					<g>
						
							<rect x="505.6" y="168.2" transform="matrix(4.232957e-03 1 -1 4.232957e-03 674.4441 -338.0954)" class="st9" width="2.8" height="2.8"/>
					</g>
					<g>
						
							<rect x="433.8" y="201.2" transform="matrix(4.233264e-03 1 -1 4.233264e-03 635.8407 -233.4539)" class="st9" width="2.8" height="2.8"/>
					</g>
					<g>
						<g>
							<path class="st9" d="M507.1,141.8c0,0-0.3,0-0.7,0c-0.5,0-1.2,0-2.1,0c-1.8,0-4.6,0-8.1,0c-7,0-17.2-0.1-30-0.2
								c-25.5-0.2-61.5-0.6-103.2-1l0.6-0.6c0.7,18.7,1.4,39,2.1,60c0,0.2,0,0.4,0,0.6l-0.6-0.6c54.9,1.5,104.6,2.8,141,3.7
								l-0.5,0.4c0.4-19.2,0.7-34.8,0.9-45.6c0.1-5.4,0.2-9.6,0.3-12.5c0-1.4,0.1-2.5,0.1-3.3c0-0.4,0-0.6,0-0.8
								C507.1,141.9,507.1,141.8,507.1,141.8c0,0,0,0.3,0,1.1c0,0.7,0,1.8,0,3.2c0,2.8,0,7-0.1,12.4c-0.1,10.8-0.3,26.5-0.5,45.8
								l0,0.5l-0.5,0c-36.4-0.9-86.2-2.1-141-3.4l-0.6,0l0-0.6c0-0.2,0-0.4,0-0.6c-0.7-21-1.4-41.3-2-60l0-0.6l0.6,0
								c41.9,0.6,78,1.2,103.6,1.5c12.7,0.2,22.9,0.4,29.9,0.5c3.4,0.1,6.1,0.1,7.9,0.2c0.9,0,1.6,0,2,0.1
								C506.9,141.7,507.1,141.8,507.1,141.8z"/>
						</g>
					</g>
					<g>
						<polygon class="st6" points="508.8,209.3 511.2,220 512.9,216.3 517.1,215.7 						"/>
					</g>
				</g>
				<g>
					<rect x="469.4" y="215.6" class="st7" width="5.7" height="5.7"/>
				</g>
				<g>
					<rect x="477.5" y="215.6" class="st4" width="5.7" height="5.7"/>
				</g>
				<g>
					<rect x="485.5" y="215.6" class="st9" width="5.7" height="5.7"/>
				</g>
				<g>
					<rect x="493.6" y="215.6" class="st6" width="5.7" height="5.7"/>
				</g>
			</g>
			<g>
				<polygon class="st7" points="502.5,199.3 372.5,195.5 370.4,144.2 502.5,145.9 				"/>
			</g>
			<g>
				<polygon class="st4" points="403.4,179.6 376,179.1 375.1,156.7 403.4,157.1 				"/>
			</g>
		</g>
	</g>
	<g>
		<g>
			<polygon class="st9" points="537.2,212.4 540.8,255.4 576.2,256 573.5,214.8 			"/>
		</g>
		<g>
			<polygon class="st6" points="536.9,210.6 537.4,214.9 573.6,216.3 573.4,212 			"/>
		</g>
		<g>
			<polygon class="st6" points="546.2,222.9 548,246.6 568.4,247.6 567.3,223 			"/>
		</g>
		<g>
			<g>
				<path class="st4" d="M566.1,242.1c0,0.1-1.7,0.2-4.4,0.3c-2.7,0.1-6.5,0.1-10.7,0.1l-0.4,0l0-0.4c0-0.5-0.1-0.9-0.1-1.4
					c-0.4-4.6-0.7-8.7-0.9-11.7c-0.2-3-0.2-4.8-0.1-4.9c0.1,0,0.4,1.8,0.8,4.8c0.4,3,0.8,7.1,1.2,11.7c0,0.5,0.1,1,0.1,1.4l-0.5-0.4
					c4.2,0,8,0.1,10.7,0.2C564.5,241.9,566.1,242,566.1,242.1z"/>
			</g>
		</g>
		<g>
			<g>
				<g>
					
						<ellipse transform="matrix(0.6158 -0.7879 0.7879 0.6158 18.7666 526.6844)" class="st7" cx="549.4" cy="244.1" rx="0.9" ry="0.5"/>
				</g>
			</g>
			<g>
				<g>
					
						<ellipse transform="matrix(0.6157 -0.7879 0.7879 0.6157 24.8219 527.9819)" class="st7" cx="553.7" cy="238.5" rx="2.1" ry="0.5"/>
				</g>
			</g>
			<g>
				<g>
					
						<ellipse transform="matrix(0.6158 -0.7879 0.7879 0.6158 31.8695 529.4673)" class="st7" cx="558.8" cy="232.1" rx="2.1" ry="0.5"/>
				</g>
			</g>
			<g>
				<g>
					
						<ellipse transform="matrix(0.6157 -0.788 0.788 0.6157 37.9386 530.7882)" class="st7" cx="563.2" cy="226.5" rx="0.9" ry="0.5"/>
				</g>
			</g>
		</g>
		<g>
			<polygon class="st7" points="539.7,217.1 539.9,219 547.9,219.1 548.2,217.1 			"/>
		</g>
	</g>
	<g>
		<g>
			<polygon class="st4" points="534.7,82 535.9,90.7 553.3,90.7 552.5,82.7 			"/>
		</g>
		<g>
			<polygon class="st9" points="534.8,84.1 552.5,84.8 552.5,82.7 534.7,82 			"/>
		</g>
		<g>
			<g>
				
					<rect x="538.7" y="85.5" transform="matrix(0.9999 -1.634182e-02 1.634182e-02 0.9999 -1.3475 8.8366)" class="st7" width="2.7" height="2.7"/>
			</g>
			<g>
				
					<rect x="538.3" y="86" transform="matrix(0.9999 -1.634182e-02 1.634182e-02 0.9999 -1.3548 8.8297)" class="st6" width="2.7" height="2.7"/>
			</g>
			<g>
				
					<rect x="537.4" y="86.7" transform="matrix(0.9999 -1.634182e-02 1.634182e-02 0.9999 -1.3669 8.8159)" class="st7" width="2.7" height="2.7"/>
			</g>
		</g>
		<g>
			<polygon class="st6" points="544,86.7 543.9,88.1 551.6,87.9 551.5,87 			"/>
		</g>
	</g>
</g>
<g id="Character">
	<g>
		<g>
			<g>
				<g>
					<path class="st7" d="M301.6,299.8v-5c0,0-0.2-6.3,8.3-6.9c8.5-0.6,38.3-0.1,38.3-0.1s8.8-0.2,8.8,5.4c0,3.4,0,6.7,0,6.7
						L301.6,299.8z"/>
					<path class="st8" d="M301.6,299.8v-5c0,0-0.2-6.3,8.3-6.9c8.5-0.6,38.3-0.1,38.3-0.1s8.8-0.2,8.8,5.4c0,3.4,0,6.7,0,6.7
						L301.6,299.8z"/>
				</g>
				<g>
					<path class="st6" d="M301.6,299.8c0,0,25.9,1.6,27.2,6.7h4.8c0,0,3.2-5.3,23.5-6.5L301.6,299.8z"/>
				</g>
			</g>
			<g>
				<path class="st6" d="M310.5,434.6h40.5l-15.4-10.2l-0.2-58.9h7.5V364h-7.5l-0.1-16.6l-1.4-3.9l-0.2-43.4h-4.7
					c-0.2,0.9,0,43.3,0,43.3l-1.4,3.8V364h-12.3v1.6h12.3v58.9L310.5,434.6z"/>
			</g>
		</g>
		<g>
			<g>
				<path class="st6" d="M325.1,211.9c-3.7,3.1-8.8,4.4-13.5,3.7c-4.7-0.8-9.1-3.6-11.7-7.7c-1.5-2.4-2.5-5.4-2.1-8.2
					c0.4-2.9,2.3-5.6,5.1-6.4c1.1-0.3,2.3-0.4,3.4-0.7c1.1-0.3,2.2-0.9,2.6-2c0.5-1.3-0.2-2.9,0-4.3c0.4-2.3,3.1-3.4,4.6-5.2
					c1.9-2.5,1.3-6,0.6-9.1l2.1-1.8L325.1,211.9z"/>
			</g>
			<g>
				<path class="st10" d="M355.1,216.3c0,0,17.6,24.1,18.5,24.7c3,1.9,33.6,13.7,33.6,13.7l-1.7,10.6c0,0-39-11.1-41.3-12.7
					c-2.3-1.6-18.2-25.7-18.2-25.7L355.1,216.3z"/>
			</g>
			<g>
				<g>
					<g>
						<g>
							<path class="st7" d="M296.7,229.3l1.5-19.6c2.5-13.8,20.1-12.6,20.1-12.6l15.2-0.2c0,0,10.5,0.3,16.6,8.9
								c4.9,7,10.2,14.3,10.2,14.3L349,231.5l-4-6.9c0,0,2.2,2.4,1.8,6.6c-0.5,5.3-4.3,6.3-4.3,6.3l1.7,35.5l-47.9-0.4l7.9-18.3
								l-1.6-25.6L296.7,229.3z"/>
						</g>
					</g>
				</g>
				<g>
					<g>
						<g>
							<g>
								<path class="st7" d="M315.3,229.5c0.4-0.1,0.9,0.5,1.1,1.3c0.2,0.7,0.2,1.5-0.2,1.7c-0.4,0.2-1-0.3-1.3-1.2
									C314.6,230.4,314.8,229.6,315.3,229.5z"/>
							</g>
						</g>
						<g>
							<g>
								<path class="st7" d="M316.7,210.5c0.4,0.1,0.7,1.4,0.5,3.1c-0.1,1.7-0.6,3-1,3c-0.4,0-0.7-1.4-0.5-3.1
									C315.8,211.8,316.3,210.5,316.7,210.5z"/>
							</g>
						</g>
						<g>
							<g>
								<path class="st7" d="M313.9,224c-0.4,0-0.7-0.5-0.5-1.1c0.3-0.5,0.9-0.6,1.2-0.3c0.3,0.3,0.4,0.7,0.3,1
									C314.7,223.8,314.4,224,313.9,224z"/>
							</g>
						</g>
						<g>
							<g>
								
									<ellipse transform="matrix(0.1907 -0.9817 0.9817 0.1907 53.9206 492.9751)" class="st7" cx="325.9" cy="213.8" rx="1.7" ry="0.8"/>
							</g>
						</g>
						<g>
							<g>
								<path class="st7" d="M339.6,213.6c0.1,0.4-0.6,0.9-1.6,0.8c-1-0.1-1.6-0.6-1.5-1.1c0.1-0.4,0.8-0.6,1.6-0.5
									C338.9,212.9,339.6,213.1,339.6,213.6z"/>
							</g>
						</g>
						<g>
							<g>
								
									<ellipse transform="matrix(0.6084 -0.7936 0.7936 0.6084 -33.6029 352.4584)" class="st7" cx="340.4" cy="210.3" rx="0.8" ry="2.1"/>
							</g>
						</g>
						<g>
							<g>
								<path class="st7" d="M344.2,210c-0.4,0-0.8-1.1-0.4-2.3c0.3-1.3,1.2-2,1.5-1.8c0.4,0.2,0.2,1.2,0,2.2
									C345,209.1,344.7,210,344.2,210z"/>
							</g>
						</g>
						<g>
							<g>
								
									<ellipse transform="matrix(0.677 -0.736 0.736 0.677 -42.4266 323.9356)" class="st7" cx="347.8" cy="210.3" rx="1.9" ry="0.8"/>
							</g>
						</g>
						<g>
							<g>
								
									<ellipse transform="matrix(0.1774 -0.9841 0.9841 0.1774 72.2342 516.1544)" class="st7" cx="344.9" cy="214.9" rx="0.8" ry="2"/>
							</g>
						</g>
						<g>
							<g>
								
									<ellipse transform="matrix(0.2162 -0.9763 0.9763 0.2162 52.0083 492.4854)" class="st7" cx="332.8" cy="213.8" rx="0.8" ry="1.7"/>
							</g>
						</g>
						<g>
							<g>
								
									<ellipse transform="matrix(0.5034 -0.864 0.864 0.5034 -14.6723 393.2767)" class="st7" cx="334.8" cy="209.4" rx="0.8" ry="1.6"/>
							</g>
						</g>
						<g>
							<g>
								<path class="st7" d="M341.9,207.2c-0.4,0.2-1.1-0.4-1.3-1.4c-0.2-1,0.1-1.9,0.6-1.8c0.4,0,0.8,0.7,1,1.5
									C342.3,206.2,342.3,207,341.9,207.2z"/>
							</g>
						</g>
						<g>
							<g>
								
									<ellipse transform="matrix(0.4627 -0.8865 0.8865 0.4627 4.4105 419.3447)" class="st7" cx="348.2" cy="206" rx="1" ry="0.8"/>
							</g>
						</g>
						<g>
							<g>
								
									<ellipse transform="matrix(0.9657 -0.2598 0.2598 0.9657 -42.8378 98.5995)" class="st7" cx="351.6" cy="211.3" rx="1.1" ry="0.8"/>
							</g>
						</g>
						<g>
							<g>
								<path class="st7" d="M334.2,203.3c0.2-0.4,1.3-0.1,2.2,0.9c0.9,1,1.1,2.1,0.7,2.3c-0.4,0.2-1.1-0.4-1.8-1.2
									C334.5,204.4,334,203.6,334.2,203.3z"/>
							</g>
						</g>
						<g>
							<g>
								
									<ellipse transform="matrix(1 -1.737888e-03 1.737888e-03 1 -0.3513 0.5982)" class="st7" cx="344.1" cy="202.4" rx="0.8" ry="1.2"/>
							</g>
						</g>
						<g>
							<g>
								
									<ellipse transform="matrix(0.3218 -0.9468 0.9468 0.3218 24.4723 454.2655)" class="st7" cx="329.3" cy="210.1" rx="0.8" ry="2.1"/>
							</g>
						</g>
						<g>
							<g>
								
									<ellipse transform="matrix(0.7049 -0.7093 0.7093 0.7049 -47.777 295.253)" class="st7" cx="331" cy="205" rx="0.8" ry="1.2"/>
							</g>
						</g>
						<g>
							<g>
								
									<ellipse transform="matrix(0.9973 -7.388947e-02 7.388947e-02 0.9973 -13.9243 25.5912)" class="st7" cx="338.9" cy="201" rx="0.8" ry="1.4"/>
							</g>
						</g>
						<g>
							<g>
								
									<ellipse transform="matrix(0.3612 -0.9325 0.9325 0.3612 7.7335 432.6192)" class="st7" cx="319.6" cy="210.7" rx="1.9" ry="0.8"/>
							</g>
						</g>
						<g>
							<g>
								
									<ellipse transform="matrix(0.9822 -0.1876 0.1876 0.9822 -33.7224 64.4162)" class="st7" cx="323.5" cy="210.4" rx="0.8" ry="1.8"/>
							</g>
						</g>
						<g>
							<g>
								
									<ellipse transform="matrix(5.384593e-02 -0.9985 0.9985 5.384593e-02 102.9642 522.8279)" class="st7" cx="327.4" cy="207.1" rx="0.8" ry="1.8"/>
							</g>
						</g>
						<g>
							<g>
								
									<ellipse transform="matrix(0.9771 -0.2128 0.2128 0.9771 -36.8106 72.0418)" class="st7" cx="316.3" cy="207.1" rx="1.5" ry="0.8"/>
							</g>
						</g>
						<g>
							<g>
								
									<ellipse transform="matrix(0.9359 -0.3523 0.3523 0.9359 -51.7936 126.5851)" class="st7" cx="321.9" cy="205.6" rx="1.3" ry="0.8"/>
							</g>
						</g>
						<g>
							<g>
								<path class="st7" d="M318.4,203.7c0,0.4-1.1,0.9-2.6,0.8c-1.5-0.1-2.6-0.8-2.5-1.2c0.1-0.4,1.3-0.5,2.6-0.4
									C317.2,203,318.3,203.3,318.4,203.7z"/>
							</g>
						</g>
						<g>
							<g>
								
									<ellipse transform="matrix(0.3991 -0.9169 0.9169 0.3991 7.438 412.635)" class="st7" cx="318.5" cy="200.6" rx="0.8" ry="2.6"/>
							</g>
						</g>
						<g>
							<g>
								<path class="st7" d="M335.3,199.7c0.2,0.4-0.3,1-0.9,1.4c-0.7,0.4-1.4,0.6-1.7,0.3c-0.3-0.3,0-1.1,0.8-1.6
									C334.3,199.3,335.2,199.3,335.3,199.7z"/>
							</g>
						</g>
						<g>
							<g>
								
									<ellipse transform="matrix(0.3663 -0.9305 0.9305 0.3663 11.4882 417.1884)" class="st7" cx="312" cy="200.2" rx="0.8" ry="1.2"/>
							</g>
						</g>
						<g>
							<g>
								
									<ellipse transform="matrix(0.9995 -3.286844e-02 3.286844e-02 0.9995 -7.8537 11.056)" class="st7" cx="332.4" cy="244.4" rx="2.3" ry="0.8"/>
							</g>
						</g>
						<g>
							<g>
								
									<ellipse transform="matrix(0.7186 -0.6954 0.6954 0.7186 -72.6483 301.1398)" class="st7" cx="335.8" cy="240.3" rx="0.8" ry="1.7"/>
							</g>
						</g>
						<g>
							<g>
								<path class="st7" d="M339.3,240.2c-0.4,0.1-0.9-0.8-0.9-1.9c0.1-1.2,0.7-1.9,1.1-1.8c0.4,0.1,0.5,1,0.4,1.9
									C339.9,239.3,339.7,240.1,339.3,240.2z"/>
							</g>
						</g>
						<g>
							<g>
								<path class="st7" d="M341.2,242.2c0.3,0.3,0.1,1-0.4,1.5c-0.5,0.5-1.1,0.8-1.5,0.6c-0.3-0.3-0.2-1,0.3-1.6
									C340.1,242.1,340.9,241.9,341.2,242.2z"/>
							</g>
						</g>
						<g>
							<g>
								<path class="st7" d="M340.2,248.9c-0.4,0-0.8-0.7-0.6-1.4c0.1-0.8,0.7-1.3,1.1-1.1c0.4,0.1,0.6,0.8,0.5,1.4
									C341,248.4,340.6,248.9,340.2,248.9z"/>
							</g>
						</g>
						<g>
							<g>
								<path class="st7" d="M336.4,246.4c0.3,0.3,0.4,0.7,0.3,0.9c-0.1,0.2-0.5,0.3-0.9,0.2c-0.4-0.1-0.7-0.5-0.5-1
									C335.6,246.1,336.1,246.1,336.4,246.4z"/>
							</g>
						</g>
						<g>
							<g>
								<path class="st7" d="M342.9,234.9c0.4,0.1,0.4,1.1-0.1,2.1c-0.5,1-1.4,1.5-1.7,1.2c-0.3-0.3-0.1-1.1,0.4-2
									C341.9,235.3,342.5,234.7,342.9,234.9z"/>
							</g>
						</g>
						<g>
							<g>
								
									<ellipse transform="matrix(0.9984 -5.592671e-02 5.592671e-02 0.9984 -12.5882 19.2566)" class="st7" cx="337.8" cy="234.5" rx="1.9" ry="0.8"/>
							</g>
						</g>
						<g>
							<g>
								
									<ellipse transform="matrix(0.7807 -0.625 0.625 0.7807 -77.4639 260.2449)" class="st7" cx="332" cy="240.5" rx="0.8" ry="1.1"/>
							</g>
						</g>
						<g>
							<g>
								<path class="st7" d="M326.4,244.7c-0.3,0.3-1.3-0.2-1.9-1.3c-0.7-1.1-0.6-2.2-0.2-2.3c0.4-0.1,1,0.6,1.5,1.5
									C326.3,243.6,326.7,244.4,326.4,244.7z"/>
							</g>
						</g>
						<g>
							<g>
								
									<ellipse transform="matrix(0.2553 -0.9669 0.9669 0.2553 3.4672 493.2084)" class="st7" cx="321.9" cy="244.4" rx="0.8" ry="1.2"/>
							</g>
						</g>
						<g>
							<g>
								
									<ellipse transform="matrix(0.144 -0.9896 0.9896 0.144 -5.0821 525.9611)" class="st7" cx="301.5" cy="265.9" rx="2.2" ry="0.8"/>
							</g>
						</g>
						<g>
							<g>
								
									<ellipse transform="matrix(0.9054 -0.4245 0.4245 0.9054 -83.5826 154.933)" class="st7" cx="305.9" cy="265.1" rx="0.8" ry="2.6"/>
							</g>
						</g>
						<g>
							<g>
								<path class="st7" d="M312.2,263.8c-0.3,0.3-1.4-0.2-2.5-1c-1.2-0.8-2-1.7-1.8-2.1c0.2-0.4,1.4-0.1,2.7,0.8
									C311.8,262.4,312.5,263.4,312.2,263.8z"/>
							</g>
						</g>
						<g>
							<g>
								
									<ellipse transform="matrix(0.3741 -0.9274 0.9274 0.3741 -50.2465 443.8327)" class="st7" cx="303.7" cy="259.1" rx="1.6" ry="0.8"/>
							</g>
						</g>
						<g>
							<g>
								
									<ellipse transform="matrix(0.7972 -0.6037 0.6037 0.7972 -98.0393 242.1583)" class="st7" cx="311.4" cy="267" rx="0.8" ry="1.7"/>
							</g>
						</g>
						<g>
							<g>
								
									<ellipse transform="matrix(0.99 -0.1408 0.1408 0.99 -34.814 45.4414)" class="st7" cx="303.7" cy="268.7" rx="0.8" ry="1.2"/>
							</g>
						</g>
						<g>
							<g>
								<path class="st7" d="M320.4,262.1c-0.1,0.4-1.5,0.5-3.1,0.2c-1.6-0.3-2.8-0.9-2.8-1.4c0.1-0.4,1.4-0.5,3.1-0.2
									C319.3,261,320.5,261.6,320.4,262.1z"/>
							</g>
						</g>
						<g>
							<g>
								
									<ellipse transform="matrix(0.6359 -0.7718 0.7718 0.6359 -90.1296 342.0489)" class="st7" cx="317.4" cy="266.5" rx="0.8" ry="2.6"/>
							</g>
						</g>
						<g>
							<g>
								
									<ellipse transform="matrix(0.2968 -0.9549 0.9549 0.2968 -26.6427 495.5957)" class="st7" cx="323.2" cy="265.9" rx="0.8" ry="2"/>
							</g>
						</g>
						<g>
							<g>
								<path class="st7" d="M329.5,267.5c0,0.4-0.6,0.8-1.3,1.2c-0.7,0.3-1.4,0.5-1.7,0.2c-0.3-0.3,0.1-1.2,1.1-1.6
									C328.5,266.8,329.5,267.1,329.5,267.5z"/>
							</g>
						</g>
						<g>
							<g>
								
									<ellipse transform="matrix(0.4886 -0.8725 0.8725 0.4886 -62.3813 419.4493)" class="st7" cx="326.6" cy="262.9" rx="0.8" ry="1.7"/>
							</g>
						</g>
						<g>
							<g>
								<path class="st7" d="M332.6,263.3c0.2,0.4,0,0.9-0.3,1.3c-0.3,0.4-0.7,0.8-1.1,0.8c-0.4,0-0.7-0.9-0.1-1.6
									C331.6,263,332.5,262.9,332.6,263.3z"/>
							</g>
						</g>
						<g>
							<g>
								
									<ellipse transform="matrix(0.9995 -3.122728e-02 3.122728e-02 0.9995 -8.1693 10.6048)" class="st7" cx="335.4" cy="266.8" rx="1.9" ry="0.8"/>
							</g>
						</g>
						<g>
							<g>
								
									<ellipse transform="matrix(0.3952 -0.9186 0.9186 0.3952 -38.6869 468.517)" class="st7" cx="336.5" cy="263.6" rx="0.8" ry="1.6"/>
							</g>
						</g>
						<g>
							<g>
								<path class="st7" d="M341.1,265.5c-0.4-0.1-0.7-0.7-0.4-1.4c0.3-0.7,0.9-1,1.2-0.8c0.4,0.2,0.4,0.8,0.2,1.3
									C342,265.2,341.6,265.6,341.1,265.5z"/>
							</g>
						</g>
						<g>
							<g>
								
									<ellipse transform="matrix(0.8352 -0.55 0.55 0.8352 -72.2875 211.6456)" class="st7" cx="317" cy="226.4" rx="0.8" ry="2"/>
							</g>
						</g>
						<g>
							<g>
								
									<ellipse transform="matrix(0.5384 -0.8427 0.8427 0.5384 -41.7501 374.6172)" class="st7" cx="321.1" cy="225.4" rx="2.5" ry="0.8"/>
							</g>
						</g>
						<g>
							<g>
								
									<ellipse transform="matrix(0.9361 -0.3517 0.3517 0.9361 -59.6252 128.5917)" class="st7" cx="324.1" cy="228.4" rx="2" ry="0.8"/>
							</g>
						</g>
						<g>
							<g>
								<path class="st7" d="M325.1,234.7c-0.3,0.3-1.2,0.1-2-0.7c-0.8-0.8-1.2-1.7-0.8-2c0.3-0.3,1.1,0.1,1.9,0.8
									C324.9,233.6,325.3,234.4,325.1,234.7z"/>
							</g>
						</g>
						<g>
							<g>
								<path class="st7" d="M319.3,237.5c-0.4,0.1-1-1-0.9-2.4c0.1-1.5,0.8-2.5,1.2-2.3c0.4,0.1,0.4,1.2,0.3,2.4
									C319.9,236.4,319.7,237.4,319.3,237.5z"/>
							</g>
						</g>
						<g>
							<g>
								
									<ellipse transform="matrix(0.2704 -0.9627 0.9627 0.2704 11.5288 475.9802)" class="st7" cx="319.8" cy="230.4" rx="0.8" ry="1.4"/>
							</g>
						</g>
						<g>
							<g>
								<path class="st7" d="M327.1,222.7c0.3,0.2,0,1.3-1,2.2c-1,0.9-2.1,1.1-2.3,0.8c-0.2-0.4,0.4-1.2,1.3-1.9
									C325.9,223,326.8,222.5,327.1,222.7z"/>
							</g>
						</g>
						<g>
							<g>
								<path class="st7" d="M318.4,220.1c0.4-0.1,0.9,0.7,1,1.7c0.1,1-0.4,1.8-0.8,1.8c-0.4-0.1-0.7-0.8-0.7-1.7
									C317.8,221,318,220.2,318.4,220.1z"/>
							</g>
						</g>
						<g>
							<g>
								<path class="st7" d="M324.1,217.3c0.4,0.1,0.5,1.1,0.1,2.2c-0.4,1.1-1.2,1.7-1.6,1.5c-0.4-0.2-0.3-1.1,0.1-2.1
									C323.2,218,323.7,217.2,324.1,217.3z"/>
							</g>
						</g>
						<g>
							<g>
								
									<ellipse transform="matrix(0.9954 -9.592601e-02 9.592601e-02 0.9954 -20.2617 32.6918)" class="st7" cx="329.9" cy="227.1" rx="1.5" ry="0.8"/>
							</g>
						</g>
						<g>
							<g>
								<path class="st7" d="M329.1,232.5c-0.2,0.4-1,0.5-2,0.2c-0.9-0.3-1.6-0.9-1.5-1.3c0.1-0.4,1-0.5,2-0.2
									C328.6,231.5,329.3,232.1,329.1,232.5z"/>
							</g>
						</g>
						<g>
							<g>
								<path class="st7" d="M323.1,238.8c-0.4,0.2-1.1-0.3-1.4-1.3c-0.3-1,0-1.8,0.4-1.8c0.4,0,0.8,0.6,1.1,1.4
									C323.5,237.9,323.5,238.6,323.1,238.8z"/>
							</g>
						</g>
						<g>
							<g>
								
									<ellipse transform="matrix(0.9983 -5.791754e-02 5.791754e-02 0.9983 -13.436 18.8831)" class="st7" cx="319" cy="241.2" rx="0.8" ry="1.4"/>
							</g>
						</g>
						<g>
							<g>
								<path class="st7" d="M329,240.7c-0.4,0.2-1.1-0.5-1.7-1.4c-0.6-0.9-0.9-1.8-0.6-2.1c0.3-0.3,1.2,0.2,1.9,1.2
									C329.3,239.4,329.4,240.5,329,240.7z"/>
							</g>
						</g>
						<g>
							<g>
								<path class="st7" d="M333.6,237c-0.2,0.4-1.2,0.2-2.3-0.2c-1.1-0.4-1.9-1-1.8-1.4c0.1-0.4,1.2-0.5,2.4,0
									C333.1,235.8,333.8,236.6,333.6,237z"/>
							</g>
						</g>
						<g>
							<g>
								<path class="st7" d="M333.9,232.4c-0.3,0.3-0.9,0.1-1.4-0.1c-0.5-0.3-0.9-0.6-0.9-1.1c0-0.4,0.8-0.7,1.6-0.3
									C334.1,231.4,334.2,232.2,333.9,232.4z"/>
							</g>
						</g>
						<g>
							<g>
								<path class="st7" d="M321,213.6c0.4,0.1,0.6,1.1,0.5,2.2c-0.1,1.2-0.5,2.1-0.9,2.1c-0.4,0-0.8-1-0.6-2.2
									C320,214.4,320.5,213.5,321,213.6z"/>
							</g>
						</g>
						<g>
							<g>
								
									<ellipse transform="matrix(0.6675 -0.7446 0.7446 0.6675 -53.4385 317.2898)" class="st7" cx="328.6" cy="218.5" rx="2" ry="0.8"/>
							</g>
						</g>
						<g>
							<g>
								
									<ellipse transform="matrix(0.801 -0.5987 0.5987 0.801 -65.4967 242.2878)" class="st7" cx="331.7" cy="219.7" rx="0.8" ry="0.7"/>
							</g>
						</g>
						<g>
							<g>
								<path class="st7" d="M307.3,216.1c-0.1,0.4-1.2,0.4-2.4-0.1c-1.2-0.5-1.9-1.4-1.7-1.7c0.2-0.4,1.2-0.2,2.3,0.3
									C306.6,215,307.4,215.7,307.3,216.1z"/>
							</g>
						</g>
						<g>
							<g>
								<path class="st7" d="M302.4,224.6c-0.4,0.2-1-0.4-1.2-1.4c-0.2-0.9,0-1.8,0.4-1.8c0.4-0.1,0.9,0.6,1.1,1.4
									C302.9,223.6,302.8,224.4,302.4,224.6z"/>
							</g>
						</g>
						<g>
							<g>
								
									<ellipse transform="matrix(0.7515 -0.6598 0.6598 0.7515 -68.4331 257.3845)" class="st7" cx="307.4" cy="219.5" rx="0.8" ry="1.8"/>
							</g>
						</g>
						<g>
							<g>
								
									<ellipse transform="matrix(0.7018 -0.7124 0.7124 0.7018 -58.8377 279.0238)" class="st7" cx="303.9" cy="209.8" rx="2.6" ry="0.8"/>
							</g>
						</g>
						<g>
							<g>
								
									<ellipse transform="matrix(0.3304 -0.9439 0.9439 0.3304 4.985 422.7812)" class="st7" cx="300.4" cy="207.9" rx="1.9" ry="0.8"/>
							</g>
						</g>
						<g>
							<g>
								<path class="st7" d="M301.2,213.6c0.2,0.4-0.1,1-0.7,1.6c-0.6,0.6-1.2,1-1.6,0.7c-0.4-0.2-0.2-1.1,0.5-1.8
									C300.1,213.4,301,213.2,301.2,213.6z"/>
							</g>
						</g>
						<g>
							<g>
								<path class="st7" d="M299.5,212.5c-0.4,0.2-0.9-0.2-0.9-0.8c0-0.6,0.5-1,0.9-0.9c0.4,0.1,0.7,0.5,0.7,0.8
									C300.1,212,299.9,212.4,299.5,212.5z"/>
							</g>
						</g>
						<g>
							<g>
								
									<ellipse transform="matrix(0.9905 -0.1377 0.1377 0.9905 -26.2368 44.1917)" class="st7" cx="306.4" cy="211.8" rx="1.8" ry="0.8"/>
							</g>
						</g>
						<g>
							<g>
								
									<ellipse transform="matrix(0.5803 -0.8144 0.8144 0.5803 -39.9738 333.7624)" class="st7" cx="303.8" cy="205.7" rx="1.8" ry="0.8"/>
							</g>
						</g>
						<g>
							<g>
								<path class="st7" d="M307.7,226.2c-0.3,0.3-1.3-0.2-1.8-1.3c-0.6-1.1-0.4-2.1,0-2.2c0.4-0.1,0.9,0.6,1.4,1.5
									C307.7,225,308,225.9,307.7,226.2z"/>
							</g>
						</g>
						<g>
							<g>
								<path class="st7" d="M298.8,227.7c-0.4,0-0.8-0.6-0.8-1.5c0.1-0.9,0.6-1.5,1-1.3c0.4,0.1,0.6,0.8,0.6,1.5
									C299.5,227.1,299.3,227.7,298.8,227.7z"/>
							</g>
						</g>
						<g>
							<g>
								
									<ellipse transform="matrix(0.2922 -0.9563 0.9563 0.2922 -2.7044 450.6297)" class="st7" cx="303.1" cy="227.1" rx="0.8" ry="1.6"/>
							</g>
						</g>
						<g>
							<g>
								
									<ellipse transform="matrix(0.7468 -0.6651 0.6651 0.7468 -70.4093 263.4724)" class="st7" cx="310.8" cy="224.2" rx="0.8" ry="1.8"/>
							</g>
						</g>
						<g>
							<g>
								
									<ellipse transform="matrix(0.9983 -5.746388e-02 5.746388e-02 0.9983 -11.7756 18.2582)" class="st7" cx="311.6" cy="213.9" rx="2.1" ry="0.8"/>
							</g>
						</g>
						<g>
							<g>
								
									<ellipse transform="matrix(0.8715 -0.4904 0.4904 0.8715 -61.8073 178.4751)" class="st7" cx="309.7" cy="207.2" rx="2" ry="0.8"/>
							</g>
						</g>
						<g>
							<g>
								
									<ellipse transform="matrix(0.4677 -0.8839 0.8839 0.4677 -18.6813 375.33)" class="st7" cx="302.3" cy="203.2" rx="1.1" ry="0.8"/>
							</g>
						</g>
						<g>
							<g>
								
									<ellipse transform="matrix(0.6907 -0.7231 0.7231 0.6907 -51.6505 286.0348)" class="st7" cx="308.6" cy="203.4" rx="1.8" ry="0.8"/>
							</g>
						</g>
						<g>
							<g>
								
									<ellipse transform="matrix(0.9824 -0.1868 0.1868 0.9824 -33.7647 62.0877)" class="st7" cx="312.5" cy="210.2" rx="1.7" ry="0.8"/>
							</g>
						</g>
						<g>
							<g>
								<path class="st7" d="M314.8,220.2c-0.2,0.4-1.2,0.1-2.1-0.4c-0.9-0.5-1.6-1.2-1.4-1.6c0.2-0.4,1.2-0.3,2.2,0.2
									C314.5,219,315.1,219.8,314.8,220.2z"/>
							</g>
						</g>
						<g>
							<g>
								
									<ellipse transform="matrix(0.3 -0.9539 0.9539 0.3 20.4773 481.5988)" class="st7" cx="338.4" cy="226.8" rx="0.8" ry="2.3"/>
							</g>
						</g>
						<g>
							<g>
								
									<ellipse transform="matrix(0.6623 -0.7492 0.7492 0.6623 -58.0538 332.4386)" class="st7" cx="339.8" cy="230.6" rx="0.8" ry="1.6"/>
							</g>
						</g>
						<g>
							<g>
								<path class="st7" d="M341.6,222.2c0.1,0.4-0.8,1.2-2.1,1.7c-1.3,0.5-2.5,0.6-2.6,0.2c-0.2-0.4,0.7-1.1,2.1-1.7
									C340.3,221.9,341.5,221.8,341.6,222.2z"/>
							</g>
						</g>
						<g>
							<g>
								
									<ellipse transform="matrix(0.9996 -2.705059e-02 2.705059e-02 0.9996 -5.9615 9.3326)" class="st7" cx="342" cy="225" rx="1.4" ry="0.8"/>
							</g>
						</g>
						<g>
							<g>
								<path class="st7" d="M345.3,230.5c-0.4,0.2-1-0.3-1.6-0.8c-0.6-0.5-1.2-0.9-1.2-1.4c0-0.2,0.3-0.4,0.7-0.4
									c0.4,0,0.9,0.1,1.4,0.5c0.5,0.4,0.8,0.8,0.9,1.2C345.6,230.1,345.5,230.4,345.3,230.5z"/>
							</g>
						</g>
						<g>
							<g>
								
									<ellipse transform="matrix(0.7876 -0.6162 0.6162 0.7876 -70.5313 261.6241)" class="st7" cx="344.2" cy="233.1" rx="0.8" ry="1.9"/>
							</g>
						</g>
						<g>
							<g>
								
									<ellipse transform="matrix(0.4941 -0.8694 0.8694 0.4941 -26.8688 401.8645)" class="st7" cx="331.9" cy="224" rx="0.8" ry="2.6"/>
							</g>
						</g>
						<g>
							<g>
								
									<ellipse transform="matrix(0.9988 -4.991675e-02 4.991675e-02 0.9988 -10.5256 16.9843)" class="st7" cx="334.8" cy="219.2" rx="0.8" ry="2.7"/>
							</g>
						</g>
						<g>
							<g>
								
									<ellipse transform="matrix(0.7892 -0.6142 0.6142 0.7892 -62.9172 254.5556)" class="st7" cx="339.3" cy="218.9" rx="2.2" ry="0.8"/>
							</g>
						</g>
						<g>
							<g>
								
									<ellipse transform="matrix(0.9715 -0.237 0.237 0.9715 -42.1762 88.0562)" class="st7" cx="345.2" cy="219.4" rx="2.3" ry="0.8"/>
							</g>
						</g>
						<g>
							<g>
								
									<ellipse transform="matrix(0.2902 -0.957 0.957 0.2902 32.6437 490.9114)" class="st7" cx="347.2" cy="223.5" rx="0.8" ry="2"/>
							</g>
						</g>
						<g>
							<g>
								
									<ellipse transform="matrix(0.989 -0.1479 0.1479 0.989 -28.7067 54.4289)" class="st7" cx="351.6" cy="220.2" rx="1.6" ry="0.8"/>
							</g>
						</g>
						<g>
							<g>
								<path class="st7" d="M350.8,225.8c0.2,0.4-0.3,1-1.2,1.2c-0.8,0.2-1.6-0.1-1.6-0.6c0-0.4,0.5-0.8,1.2-1
									C350,225.3,350.7,225.4,350.8,225.8z"/>
							</g>
						</g>
						<g>
							<g>
								<path class="st7" d="M352.9,225.1c-0.4,0.1-0.9-0.4-1-1.2c0-0.8,0.5-1.3,0.9-1.2c0.4,0.1,0.7,0.6,0.7,1.2
									C353.6,224.4,353.4,224.9,352.9,225.1z"/>
							</g>
						</g>
						<g>
							<g>
								
									<ellipse transform="matrix(0.1839 -0.9829 0.9829 0.1839 73.2821 520.0159)" class="st7" cx="349.8" cy="215.9" rx="2" ry="0.8"/>
							</g>
						</g>
						<g>
							<g>
								
									<ellipse transform="matrix(9.663580e-02 -0.9953 0.9953 9.663580e-02 105.2067 547.2222)" class="st7" cx="354.1" cy="215.7" rx="1.4" ry="0.8"/>
							</g>
						</g>
						<g>
							<g>
								
									<ellipse transform="matrix(0.9925 -0.1226 0.1226 0.9925 -24.2304 45.3422)" class="st7" cx="356.4" cy="219.6" rx="0.8" ry="1.6"/>
							</g>
						</g>
						<g>
							<g>
								<path class="st7" d="M299.2,223.4c-0.4,0-0.8-1.4-0.8-3.1c0.1-1.7,0.5-3,1-3c0.4,0,0.7,1.4,0.6,3
									C299.9,222,299.6,223.3,299.2,223.4z"/>
							</g>
						</g>
						<g>
							<g>
								
									<ellipse transform="matrix(0.8432 -0.5376 0.5376 0.8432 -70.085 196.999)" class="st7" cx="302.7" cy="218.7" rx="0.8" ry="2.6"/>
							</g>
						</g>
						<g>
							<g>
								
									<ellipse transform="matrix(0.8728 -0.4881 0.4881 0.8728 -69.5608 192.9972)" class="st7" cx="335.5" cy="230" rx="0.8" ry="2.9"/>
							</g>
						</g>
					</g>
					<g class="st8">
						<g>
							<g>
								<path class="st5" d="M315.3,229.5c0.4-0.1,0.9,0.5,1.1,1.3c0.2,0.7,0.2,1.5-0.2,1.7c-0.4,0.2-1-0.3-1.3-1.2
									C314.6,230.4,314.8,229.6,315.3,229.5z"/>
							</g>
						</g>
						<g>
							<g>
								<path class="st5" d="M316.7,210.5c0.4,0.1,0.7,1.4,0.5,3.1c-0.1,1.7-0.6,3-1,3c-0.4,0-0.7-1.4-0.5-3.1
									C315.8,211.8,316.3,210.5,316.7,210.5z"/>
							</g>
						</g>
						<g>
							<g>
								<path class="st5" d="M313.9,224c-0.4,0-0.7-0.5-0.5-1.1c0.3-0.5,0.9-0.6,1.2-0.3c0.3,0.3,0.4,0.7,0.3,1
									C314.7,223.8,314.4,224,313.9,224z"/>
							</g>
						</g>
						<g>
							<g>
								
									<ellipse transform="matrix(0.1907 -0.9817 0.9817 0.1907 53.9206 492.9751)" class="st5" cx="325.9" cy="213.8" rx="1.7" ry="0.8"/>
							</g>
						</g>
						<g>
							<g>
								<path class="st5" d="M339.6,213.6c0.1,0.4-0.6,0.9-1.6,0.8c-1-0.1-1.6-0.6-1.5-1.1c0.1-0.4,0.8-0.6,1.6-0.5
									C338.9,212.9,339.6,213.1,339.6,213.6z"/>
							</g>
						</g>
						<g>
							<g>
								
									<ellipse transform="matrix(0.6084 -0.7936 0.7936 0.6084 -33.6029 352.4584)" class="st5" cx="340.4" cy="210.3" rx="0.8" ry="2.1"/>
							</g>
						</g>
						<g>
							<g>
								<path class="st5" d="M344.2,210c-0.4,0-0.8-1.1-0.4-2.3c0.3-1.3,1.2-2,1.5-1.8c0.4,0.2,0.2,1.2,0,2.2
									C345,209.1,344.7,210,344.2,210z"/>
							</g>
						</g>
						<g>
							<g>
								
									<ellipse transform="matrix(0.677 -0.736 0.736 0.677 -42.4266 323.9356)" class="st5" cx="347.8" cy="210.3" rx="1.9" ry="0.8"/>
							</g>
						</g>
						<g>
							<g>
								
									<ellipse transform="matrix(0.1774 -0.9841 0.9841 0.1774 72.2342 516.1544)" class="st5" cx="344.9" cy="214.9" rx="0.8" ry="2"/>
							</g>
						</g>
						<g>
							<g>
								
									<ellipse transform="matrix(0.2162 -0.9763 0.9763 0.2162 52.0083 492.4854)" class="st5" cx="332.8" cy="213.8" rx="0.8" ry="1.7"/>
							</g>
						</g>
						<g>
							<g>
								
									<ellipse transform="matrix(0.5034 -0.864 0.864 0.5034 -14.6723 393.2767)" class="st5" cx="334.8" cy="209.4" rx="0.8" ry="1.6"/>
							</g>
						</g>
						<g>
							<g>
								<path class="st5" d="M341.9,207.2c-0.4,0.2-1.1-0.4-1.3-1.4c-0.2-1,0.1-1.9,0.6-1.8c0.4,0,0.8,0.7,1,1.5
									C342.3,206.2,342.3,207,341.9,207.2z"/>
							</g>
						</g>
						<g>
							<g>
								
									<ellipse transform="matrix(0.4627 -0.8865 0.8865 0.4627 4.4105 419.3447)" class="st5" cx="348.2" cy="206" rx="1" ry="0.8"/>
							</g>
						</g>
						<g>
							<g>
								
									<ellipse transform="matrix(0.9657 -0.2598 0.2598 0.9657 -42.8378 98.5995)" class="st5" cx="351.6" cy="211.3" rx="1.1" ry="0.8"/>
							</g>
						</g>
						<g>
							<g>
								<path class="st5" d="M334.2,203.3c0.2-0.4,1.3-0.1,2.2,0.9c0.9,1,1.1,2.1,0.7,2.3c-0.4,0.2-1.1-0.4-1.8-1.2
									C334.5,204.4,334,203.6,334.2,203.3z"/>
							</g>
						</g>
						<g>
							<g>
								
									<ellipse transform="matrix(1 -1.737888e-03 1.737888e-03 1 -0.3513 0.5982)" class="st5" cx="344.1" cy="202.4" rx="0.8" ry="1.2"/>
							</g>
						</g>
						<g>
							<g>
								
									<ellipse transform="matrix(0.3218 -0.9468 0.9468 0.3218 24.4723 454.2655)" class="st5" cx="329.3" cy="210.1" rx="0.8" ry="2.1"/>
							</g>
						</g>
						<g>
							<g>
								
									<ellipse transform="matrix(0.7049 -0.7093 0.7093 0.7049 -47.777 295.253)" class="st5" cx="331" cy="205" rx="0.8" ry="1.2"/>
							</g>
						</g>
						<g>
							<g>
								
									<ellipse transform="matrix(0.9973 -7.388947e-02 7.388947e-02 0.9973 -13.9243 25.5912)" class="st5" cx="338.9" cy="201" rx="0.8" ry="1.4"/>
							</g>
						</g>
						<g>
							<g>
								
									<ellipse transform="matrix(0.3612 -0.9325 0.9325 0.3612 7.7335 432.6192)" class="st5" cx="319.6" cy="210.7" rx="1.9" ry="0.8"/>
							</g>
						</g>
						<g>
							<g>
								
									<ellipse transform="matrix(0.9822 -0.1876 0.1876 0.9822 -33.7224 64.4162)" class="st5" cx="323.5" cy="210.4" rx="0.8" ry="1.8"/>
							</g>
						</g>
						<g>
							<g>
								
									<ellipse transform="matrix(5.384593e-02 -0.9985 0.9985 5.384593e-02 102.9642 522.8279)" class="st5" cx="327.4" cy="207.1" rx="0.8" ry="1.8"/>
							</g>
						</g>
						<g>
							<g>
								
									<ellipse transform="matrix(0.9771 -0.2128 0.2128 0.9771 -36.8106 72.0418)" class="st5" cx="316.3" cy="207.1" rx="1.5" ry="0.8"/>
							</g>
						</g>
						<g>
							<g>
								
									<ellipse transform="matrix(0.9359 -0.3523 0.3523 0.9359 -51.7936 126.5851)" class="st5" cx="321.9" cy="205.6" rx="1.3" ry="0.8"/>
							</g>
						</g>
						<g>
							<g>
								<path class="st5" d="M318.4,203.7c0,0.4-1.1,0.9-2.6,0.8c-1.5-0.1-2.6-0.8-2.5-1.2c0.1-0.4,1.3-0.5,2.6-0.4
									C317.2,203,318.3,203.3,318.4,203.7z"/>
							</g>
						</g>
						<g>
							<g>
								
									<ellipse transform="matrix(0.3991 -0.9169 0.9169 0.3991 7.438 412.635)" class="st5" cx="318.5" cy="200.6" rx="0.8" ry="2.6"/>
							</g>
						</g>
						<g>
							<g>
								<path class="st5" d="M335.3,199.7c0.2,0.4-0.3,1-0.9,1.4c-0.7,0.4-1.4,0.6-1.7,0.3c-0.3-0.3,0-1.1,0.8-1.6
									C334.3,199.3,335.2,199.3,335.3,199.7z"/>
							</g>
						</g>
						<g>
							<g>
								
									<ellipse transform="matrix(0.3663 -0.9305 0.9305 0.3663 11.4882 417.1884)" class="st5" cx="312" cy="200.2" rx="0.8" ry="1.2"/>
							</g>
						</g>
						<g>
							<g>
								
									<ellipse transform="matrix(0.9995 -3.286844e-02 3.286844e-02 0.9995 -7.8537 11.056)" class="st5" cx="332.4" cy="244.4" rx="2.3" ry="0.8"/>
							</g>
						</g>
						<g>
							<g>
								
									<ellipse transform="matrix(0.7186 -0.6954 0.6954 0.7186 -72.6483 301.1398)" class="st5" cx="335.8" cy="240.3" rx="0.8" ry="1.7"/>
							</g>
						</g>
						<g>
							<g>
								<path class="st5" d="M339.3,240.2c-0.4,0.1-0.9-0.8-0.9-1.9c0.1-1.2,0.7-1.9,1.1-1.8c0.4,0.1,0.5,1,0.4,1.9
									C339.9,239.3,339.7,240.1,339.3,240.2z"/>
							</g>
						</g>
						<g>
							<g>
								<path class="st5" d="M341.2,242.2c0.3,0.3,0.1,1-0.4,1.5c-0.5,0.5-1.1,0.8-1.5,0.6c-0.3-0.3-0.2-1,0.3-1.6
									C340.1,242.1,340.9,241.9,341.2,242.2z"/>
							</g>
						</g>
						<g>
							<g>
								<path class="st5" d="M340.2,248.9c-0.4,0-0.8-0.7-0.6-1.4c0.1-0.8,0.7-1.3,1.1-1.1c0.4,0.1,0.6,0.8,0.5,1.4
									C341,248.4,340.6,248.9,340.2,248.9z"/>
							</g>
						</g>
						<g>
							<g>
								<path class="st5" d="M336.4,246.4c0.3,0.3,0.4,0.7,0.3,0.9c-0.1,0.2-0.5,0.3-0.9,0.2c-0.4-0.1-0.7-0.5-0.5-1
									C335.6,246.1,336.1,246.1,336.4,246.4z"/>
							</g>
						</g>
						<g>
							<g>
								<path class="st5" d="M342.9,234.9c0.4,0.1,0.4,1.1-0.1,2.1c-0.5,1-1.4,1.5-1.7,1.2c-0.3-0.3-0.1-1.1,0.4-2
									C341.9,235.3,342.5,234.7,342.9,234.9z"/>
							</g>
						</g>
						<g>
							<g>
								
									<ellipse transform="matrix(0.9984 -5.592671e-02 5.592671e-02 0.9984 -12.5882 19.2566)" class="st5" cx="337.8" cy="234.5" rx="1.9" ry="0.8"/>
							</g>
						</g>
						<g>
							<g>
								
									<ellipse transform="matrix(0.7807 -0.625 0.625 0.7807 -77.4639 260.2449)" class="st5" cx="332" cy="240.5" rx="0.8" ry="1.1"/>
							</g>
						</g>
						<g>
							<g>
								<path class="st5" d="M326.4,244.7c-0.3,0.3-1.3-0.2-1.9-1.3c-0.7-1.1-0.6-2.2-0.2-2.3c0.4-0.1,1,0.6,1.5,1.5
									C326.3,243.6,326.7,244.4,326.4,244.7z"/>
							</g>
						</g>
						<g>
							<g>
								
									<ellipse transform="matrix(0.2553 -0.9669 0.9669 0.2553 3.4672 493.2084)" class="st5" cx="321.9" cy="244.4" rx="0.8" ry="1.2"/>
							</g>
						</g>
						<g>
							<g>
								
									<ellipse transform="matrix(0.144 -0.9896 0.9896 0.144 -5.0821 525.9611)" class="st5" cx="301.5" cy="265.9" rx="2.2" ry="0.8"/>
							</g>
						</g>
						<g>
							<g>
								
									<ellipse transform="matrix(0.9054 -0.4245 0.4245 0.9054 -83.5826 154.933)" class="st5" cx="305.9" cy="265.1" rx="0.8" ry="2.6"/>
							</g>
						</g>
						<g>
							<g>
								<path class="st5" d="M312.2,263.8c-0.3,0.3-1.4-0.2-2.5-1c-1.2-0.8-2-1.7-1.8-2.1c0.2-0.4,1.4-0.1,2.7,0.8
									C311.8,262.4,312.5,263.4,312.2,263.8z"/>
							</g>
						</g>
						<g>
							<g>
								
									<ellipse transform="matrix(0.3741 -0.9274 0.9274 0.3741 -50.2465 443.8327)" class="st5" cx="303.7" cy="259.1" rx="1.6" ry="0.8"/>
							</g>
						</g>
						<g>
							<g>
								
									<ellipse transform="matrix(0.7972 -0.6037 0.6037 0.7972 -98.0393 242.1583)" class="st5" cx="311.4" cy="267" rx="0.8" ry="1.7"/>
							</g>
						</g>
						<g>
							<g>
								
									<ellipse transform="matrix(0.99 -0.1408 0.1408 0.99 -34.814 45.4414)" class="st5" cx="303.7" cy="268.7" rx="0.8" ry="1.2"/>
							</g>
						</g>
						<g>
							<g>
								<path class="st5" d="M320.4,262.1c-0.1,0.4-1.5,0.5-3.1,0.2c-1.6-0.3-2.8-0.9-2.8-1.4c0.1-0.4,1.4-0.5,3.1-0.2
									C319.3,261,320.5,261.6,320.4,262.1z"/>
							</g>
						</g>
						<g>
							<g>
								
									<ellipse transform="matrix(0.6359 -0.7718 0.7718 0.6359 -90.1296 342.0489)" class="st5" cx="317.4" cy="266.5" rx="0.8" ry="2.6"/>
							</g>
						</g>
						<g>
							<g>
								
									<ellipse transform="matrix(0.2968 -0.9549 0.9549 0.2968 -26.6427 495.5957)" class="st5" cx="323.2" cy="265.9" rx="0.8" ry="2"/>
							</g>
						</g>
						<g>
							<g>
								<path class="st5" d="M329.5,267.5c0,0.4-0.6,0.8-1.3,1.2c-0.7,0.3-1.4,0.5-1.7,0.2c-0.3-0.3,0.1-1.2,1.1-1.6
									C328.5,266.8,329.5,267.1,329.5,267.5z"/>
							</g>
						</g>
						<g>
							<g>
								
									<ellipse transform="matrix(0.4886 -0.8725 0.8725 0.4886 -62.3813 419.4493)" class="st5" cx="326.6" cy="262.9" rx="0.8" ry="1.7"/>
							</g>
						</g>
						<g>
							<g>
								<path class="st5" d="M332.6,263.3c0.2,0.4,0,0.9-0.3,1.3c-0.3,0.4-0.7,0.8-1.1,0.8c-0.4,0-0.7-0.9-0.1-1.6
									C331.6,263,332.5,262.9,332.6,263.3z"/>
							</g>
						</g>
						<g>
							<g>
								
									<ellipse transform="matrix(0.9995 -3.122728e-02 3.122728e-02 0.9995 -8.1693 10.6048)" class="st5" cx="335.4" cy="266.8" rx="1.9" ry="0.8"/>
							</g>
						</g>
						<g>
							<g>
								
									<ellipse transform="matrix(0.3952 -0.9186 0.9186 0.3952 -38.6869 468.517)" class="st5" cx="336.5" cy="263.6" rx="0.8" ry="1.6"/>
							</g>
						</g>
						<g>
							<g>
								<path class="st5" d="M341.1,265.5c-0.4-0.1-0.7-0.7-0.4-1.4c0.3-0.7,0.9-1,1.2-0.8c0.4,0.2,0.4,0.8,0.2,1.3
									C342,265.2,341.6,265.6,341.1,265.5z"/>
							</g>
						</g>
						<g>
							<g>
								
									<ellipse transform="matrix(0.8352 -0.55 0.55 0.8352 -72.2875 211.6456)" class="st5" cx="317" cy="226.4" rx="0.8" ry="2"/>
							</g>
						</g>
						<g>
							<g>
								
									<ellipse transform="matrix(0.5384 -0.8427 0.8427 0.5384 -41.7501 374.6172)" class="st5" cx="321.1" cy="225.4" rx="2.5" ry="0.8"/>
							</g>
						</g>
						<g>
							<g>
								
									<ellipse transform="matrix(0.9361 -0.3517 0.3517 0.9361 -59.6252 128.5917)" class="st5" cx="324.1" cy="228.4" rx="2" ry="0.8"/>
							</g>
						</g>
						<g>
							<g>
								<path class="st5" d="M325.1,234.7c-0.3,0.3-1.2,0.1-2-0.7c-0.8-0.8-1.2-1.7-0.8-2c0.3-0.3,1.1,0.1,1.9,0.8
									C324.9,233.6,325.3,234.4,325.1,234.7z"/>
							</g>
						</g>
						<g>
							<g>
								<path class="st5" d="M319.3,237.5c-0.4,0.1-1-1-0.9-2.4c0.1-1.5,0.8-2.5,1.2-2.3c0.4,0.1,0.4,1.2,0.3,2.4
									C319.9,236.4,319.7,237.4,319.3,237.5z"/>
							</g>
						</g>
						<g>
							<g>
								
									<ellipse transform="matrix(0.2704 -0.9627 0.9627 0.2704 11.5288 475.9802)" class="st5" cx="319.8" cy="230.4" rx="0.8" ry="1.4"/>
							</g>
						</g>
						<g>
							<g>
								<path class="st5" d="M327.1,222.7c0.3,0.2,0,1.3-1,2.2c-1,0.9-2.1,1.1-2.3,0.8c-0.2-0.4,0.4-1.2,1.3-1.9
									C325.9,223,326.8,222.5,327.1,222.7z"/>
							</g>
						</g>
						<g>
							<g>
								<path class="st5" d="M318.4,220.1c0.4-0.1,0.9,0.7,1,1.7c0.1,1-0.4,1.8-0.8,1.8c-0.4-0.1-0.7-0.8-0.7-1.7
									C317.8,221,318,220.2,318.4,220.1z"/>
							</g>
						</g>
						<g>
							<g>
								<path class="st5" d="M324.1,217.3c0.4,0.1,0.5,1.1,0.1,2.2c-0.4,1.1-1.2,1.7-1.6,1.5c-0.4-0.2-0.3-1.1,0.1-2.1
									C323.2,218,323.7,217.2,324.1,217.3z"/>
							</g>
						</g>
						<g>
							<g>
								
									<ellipse transform="matrix(0.9954 -9.592601e-02 9.592601e-02 0.9954 -20.2617 32.6918)" class="st5" cx="329.9" cy="227.1" rx="1.5" ry="0.8"/>
							</g>
						</g>
						<g>
							<g>
								<path class="st5" d="M329.1,232.5c-0.2,0.4-1,0.5-2,0.2c-0.9-0.3-1.6-0.9-1.5-1.3c0.1-0.4,1-0.5,2-0.2
									C328.6,231.5,329.3,232.1,329.1,232.5z"/>
							</g>
						</g>
						<g>
							<g>
								<path class="st5" d="M323.1,238.8c-0.4,0.2-1.1-0.3-1.4-1.3c-0.3-1,0-1.8,0.4-1.8c0.4,0,0.8,0.6,1.1,1.4
									C323.5,237.9,323.5,238.6,323.1,238.8z"/>
							</g>
						</g>
						<g>
							<g>
								
									<ellipse transform="matrix(0.9983 -5.791754e-02 5.791754e-02 0.9983 -13.436 18.8831)" class="st5" cx="319" cy="241.2" rx="0.8" ry="1.4"/>
							</g>
						</g>
						<g>
							<g>
								<path class="st5" d="M329,240.7c-0.4,0.2-1.1-0.5-1.7-1.4c-0.6-0.9-0.9-1.8-0.6-2.1c0.3-0.3,1.2,0.2,1.9,1.2
									C329.3,239.4,329.4,240.5,329,240.7z"/>
							</g>
						</g>
						<g>
							<g>
								<path class="st5" d="M333.6,237c-0.2,0.4-1.2,0.2-2.3-0.2c-1.1-0.4-1.9-1-1.8-1.4c0.1-0.4,1.2-0.5,2.4,0
									C333.1,235.8,333.8,236.6,333.6,237z"/>
							</g>
						</g>
						<g>
							<g>
								<path class="st5" d="M333.9,232.4c-0.3,0.3-0.9,0.1-1.4-0.1c-0.5-0.3-0.9-0.6-0.9-1.1c0-0.4,0.8-0.7,1.6-0.3
									C334.1,231.4,334.2,232.2,333.9,232.4z"/>
							</g>
						</g>
						<g>
							<g>
								<path class="st5" d="M321,213.6c0.4,0.1,0.6,1.1,0.5,2.2c-0.1,1.2-0.5,2.1-0.9,2.1c-0.4,0-0.8-1-0.6-2.2
									C320,214.4,320.5,213.5,321,213.6z"/>
							</g>
						</g>
						<g>
							<g>
								
									<ellipse transform="matrix(0.6675 -0.7446 0.7446 0.6675 -53.4385 317.2898)" class="st5" cx="328.6" cy="218.5" rx="2" ry="0.8"/>
							</g>
						</g>
						<g>
							<g>
								
									<ellipse transform="matrix(0.801 -0.5987 0.5987 0.801 -65.4967 242.2878)" class="st5" cx="331.7" cy="219.7" rx="0.8" ry="0.7"/>
							</g>
						</g>
						<g>
							<g>
								<path class="st5" d="M307.3,216.1c-0.1,0.4-1.2,0.4-2.4-0.1c-1.2-0.5-1.9-1.4-1.7-1.7c0.2-0.4,1.2-0.2,2.3,0.3
									C306.6,215,307.4,215.7,307.3,216.1z"/>
							</g>
						</g>
						<g>
							<g>
								<path class="st5" d="M302.4,224.6c-0.4,0.2-1-0.4-1.2-1.4c-0.2-0.9,0-1.8,0.4-1.8c0.4-0.1,0.9,0.6,1.1,1.4
									C302.9,223.6,302.8,224.4,302.4,224.6z"/>
							</g>
						</g>
						<g>
							<g>
								
									<ellipse transform="matrix(0.7515 -0.6598 0.6598 0.7515 -68.4331 257.3845)" class="st5" cx="307.4" cy="219.5" rx="0.8" ry="1.8"/>
							</g>
						</g>
						<g>
							<g>
								
									<ellipse transform="matrix(0.7018 -0.7124 0.7124 0.7018 -58.8377 279.0238)" class="st5" cx="303.9" cy="209.8" rx="2.6" ry="0.8"/>
							</g>
						</g>
						<g>
							<g>
								
									<ellipse transform="matrix(0.3304 -0.9439 0.9439 0.3304 4.985 422.7812)" class="st5" cx="300.4" cy="207.9" rx="1.9" ry="0.8"/>
							</g>
						</g>
						<g>
							<g>
								<path class="st5" d="M301.2,213.6c0.2,0.4-0.1,1-0.7,1.6c-0.6,0.6-1.2,1-1.6,0.7c-0.4-0.2-0.2-1.1,0.5-1.8
									C300.1,213.4,301,213.2,301.2,213.6z"/>
							</g>
						</g>
						<g>
							<g>
								<path class="st5" d="M299.5,212.5c-0.4,0.2-0.9-0.2-0.9-0.8c0-0.6,0.5-1,0.9-0.9c0.4,0.1,0.7,0.5,0.7,0.8
									C300.1,212,299.9,212.4,299.5,212.5z"/>
							</g>
						</g>
						<g>
							<g>
								
									<ellipse transform="matrix(0.9905 -0.1377 0.1377 0.9905 -26.2368 44.1917)" class="st5" cx="306.4" cy="211.8" rx="1.8" ry="0.8"/>
							</g>
						</g>
						<g>
							<g>
								
									<ellipse transform="matrix(0.5803 -0.8144 0.8144 0.5803 -39.9738 333.7624)" class="st5" cx="303.8" cy="205.7" rx="1.8" ry="0.8"/>
							</g>
						</g>
						<g>
							<g>
								<path class="st5" d="M307.7,226.2c-0.3,0.3-1.3-0.2-1.8-1.3c-0.6-1.1-0.4-2.1,0-2.2c0.4-0.1,0.9,0.6,1.4,1.5
									C307.7,225,308,225.9,307.7,226.2z"/>
							</g>
						</g>
						<g>
							<g>
								<path class="st5" d="M298.8,227.7c-0.4,0-0.8-0.6-0.8-1.5c0.1-0.9,0.6-1.5,1-1.3c0.4,0.1,0.6,0.8,0.6,1.5
									C299.5,227.1,299.3,227.7,298.8,227.7z"/>
							</g>
						</g>
						<g>
							<g>
								
									<ellipse transform="matrix(0.2922 -0.9563 0.9563 0.2922 -2.7044 450.6297)" class="st5" cx="303.1" cy="227.1" rx="0.8" ry="1.6"/>
							</g>
						</g>
						<g>
							<g>
								
									<ellipse transform="matrix(0.7468 -0.6651 0.6651 0.7468 -70.4093 263.4724)" class="st5" cx="310.8" cy="224.2" rx="0.8" ry="1.8"/>
							</g>
						</g>
						<g>
							<g>
								
									<ellipse transform="matrix(0.9983 -5.746388e-02 5.746388e-02 0.9983 -11.7756 18.2582)" class="st5" cx="311.6" cy="213.9" rx="2.1" ry="0.8"/>
							</g>
						</g>
						<g>
							<g>
								
									<ellipse transform="matrix(0.8715 -0.4904 0.4904 0.8715 -61.8073 178.4751)" class="st5" cx="309.7" cy="207.2" rx="2" ry="0.8"/>
							</g>
						</g>
						<g>
							<g>
								
									<ellipse transform="matrix(0.4677 -0.8839 0.8839 0.4677 -18.6813 375.33)" class="st5" cx="302.3" cy="203.2" rx="1.1" ry="0.8"/>
							</g>
						</g>
						<g>
							<g>
								
									<ellipse transform="matrix(0.6907 -0.7231 0.7231 0.6907 -51.6505 286.0348)" class="st5" cx="308.6" cy="203.4" rx="1.8" ry="0.8"/>
							</g>
						</g>
						<g>
							<g>
								
									<ellipse transform="matrix(0.9824 -0.1868 0.1868 0.9824 -33.7647 62.0877)" class="st5" cx="312.5" cy="210.2" rx="1.7" ry="0.8"/>
							</g>
						</g>
						<g>
							<g>
								<path class="st5" d="M314.8,220.2c-0.2,0.4-1.2,0.1-2.1-0.4c-0.9-0.5-1.6-1.2-1.4-1.6c0.2-0.4,1.2-0.3,2.2,0.2
									C314.5,219,315.1,219.8,314.8,220.2z"/>
							</g>
						</g>
						<g>
							<g>
								
									<ellipse transform="matrix(0.3 -0.9539 0.9539 0.3 20.4773 481.5988)" class="st5" cx="338.4" cy="226.8" rx="0.8" ry="2.3"/>
							</g>
						</g>
						<g>
							<g>
								
									<ellipse transform="matrix(0.6623 -0.7492 0.7492 0.6623 -58.0538 332.4386)" class="st5" cx="339.8" cy="230.6" rx="0.8" ry="1.6"/>
							</g>
						</g>
						<g>
							<g>
								<path class="st5" d="M341.6,222.2c0.1,0.4-0.8,1.2-2.1,1.7c-1.3,0.5-2.5,0.6-2.6,0.2c-0.2-0.4,0.7-1.1,2.1-1.7
									C340.3,221.9,341.5,221.8,341.6,222.2z"/>
							</g>
						</g>
						<g>
							<g>
								
									<ellipse transform="matrix(0.9996 -2.705059e-02 2.705059e-02 0.9996 -5.9615 9.3326)" class="st5" cx="342" cy="225" rx="1.4" ry="0.8"/>
							</g>
						</g>
						<g>
							<g>
								<path class="st5" d="M345.3,230.5c-0.4,0.2-1-0.3-1.6-0.8c-0.6-0.5-1.2-0.9-1.2-1.4c0-0.2,0.3-0.4,0.7-0.4
									c0.4,0,0.9,0.1,1.4,0.5c0.5,0.4,0.8,0.8,0.9,1.2C345.6,230.1,345.5,230.4,345.3,230.5z"/>
							</g>
						</g>
						<g>
							<g>
								
									<ellipse transform="matrix(0.7876 -0.6162 0.6162 0.7876 -70.5313 261.6241)" class="st5" cx="344.2" cy="233.1" rx="0.8" ry="1.9"/>
							</g>
						</g>
						<g>
							<g>
								
									<ellipse transform="matrix(0.4941 -0.8694 0.8694 0.4941 -26.8688 401.8645)" class="st5" cx="331.9" cy="224" rx="0.8" ry="2.6"/>
							</g>
						</g>
						<g>
							<g>
								
									<ellipse transform="matrix(0.9988 -4.991675e-02 4.991675e-02 0.9988 -10.5256 16.9843)" class="st5" cx="334.8" cy="219.2" rx="0.8" ry="2.7"/>
							</g>
						</g>
						<g>
							<g>
								
									<ellipse transform="matrix(0.7892 -0.6142 0.6142 0.7892 -62.9172 254.5556)" class="st5" cx="339.3" cy="218.9" rx="2.2" ry="0.8"/>
							</g>
						</g>
						<g>
							<g>
								
									<ellipse transform="matrix(0.9715 -0.237 0.237 0.9715 -42.1762 88.0562)" class="st5" cx="345.2" cy="219.4" rx="2.3" ry="0.8"/>
							</g>
						</g>
						<g>
							<g>
								
									<ellipse transform="matrix(0.2902 -0.957 0.957 0.2902 32.6437 490.9114)" class="st5" cx="347.2" cy="223.5" rx="0.8" ry="2"/>
							</g>
						</g>
						<g>
							<g>
								
									<ellipse transform="matrix(0.989 -0.1479 0.1479 0.989 -28.7067 54.4289)" class="st5" cx="351.6" cy="220.2" rx="1.6" ry="0.8"/>
							</g>
						</g>
						<g>
							<g>
								<path class="st5" d="M350.8,225.8c0.2,0.4-0.3,1-1.2,1.2c-0.8,0.2-1.6-0.1-1.6-0.6c0-0.4,0.5-0.8,1.2-1
									C350,225.3,350.7,225.4,350.8,225.8z"/>
							</g>
						</g>
						<g>
							<g>
								<path class="st5" d="M352.9,225.1c-0.4,0.1-0.9-0.4-1-1.2c0-0.8,0.5-1.3,0.9-1.2c0.4,0.1,0.7,0.6,0.7,1.2
									C353.6,224.4,353.4,224.9,352.9,225.1z"/>
							</g>
						</g>
						<g>
							<g>
								
									<ellipse transform="matrix(0.1839 -0.9829 0.9829 0.1839 73.2821 520.0159)" class="st5" cx="349.8" cy="215.9" rx="2" ry="0.8"/>
							</g>
						</g>
						<g>
							<g>
								
									<ellipse transform="matrix(9.663580e-02 -0.9953 0.9953 9.663580e-02 105.2067 547.2222)" class="st5" cx="354.1" cy="215.7" rx="1.4" ry="0.8"/>
							</g>
						</g>
						<g>
							<g>
								
									<ellipse transform="matrix(0.9925 -0.1226 0.1226 0.9925 -24.2304 45.3422)" class="st5" cx="356.4" cy="219.6" rx="0.8" ry="1.6"/>
							</g>
						</g>
						<g>
							<g>
								<path class="st5" d="M299.2,223.4c-0.4,0-0.8-1.4-0.8-3.1c0.1-1.7,0.5-3,1-3c0.4,0,0.7,1.4,0.6,3
									C299.9,222,299.6,223.3,299.2,223.4z"/>
							</g>
						</g>
						<g>
							<g>
								
									<ellipse transform="matrix(0.8432 -0.5376 0.5376 0.8432 -70.085 196.999)" class="st5" cx="302.7" cy="218.7" rx="0.8" ry="2.6"/>
							</g>
						</g>
						<g>
							<g>
								
									<ellipse transform="matrix(0.8728 -0.4881 0.4881 0.8728 -69.5608 192.9972)" class="st5" cx="335.5" cy="230" rx="0.8" ry="2.9"/>
							</g>
						</g>
					</g>
				</g>
				<g>
					<g>
						
							<ellipse transform="matrix(0.9999 -1.271923e-02 1.271923e-02 0.9999 -2.7664 4.0122)" class="st6" cx="314" cy="219.5" rx="0.2" ry="8.5"/>
					</g>
				</g>
				<g>
					<g>
						<path class="st6" d="M315.1,214.1c0.1,0-0.2,0.7-0.4,1.5c-0.2,0.8-0.4,1.5-0.5,1.5c-0.1,0-0.1-0.7,0.2-1.6
							C314.6,214.7,315,214,315.1,214.1z"/>
					</g>
				</g>
				<g>
					<g>
						<path class="st6" d="M333.2,197.2c0,0,0,0.1,0.1,0.3c0.1,0.2,0.1,0.4,0.1,0.8c0.1,0.7,0.1,1.7-0.3,2.8
							c-0.4,1.2-1.1,2.5-2.3,3.5c-1.2,1.1-3,1.7-4.9,1.7c-1.9-0.1-3.6-0.8-4.8-1.9c-1.2-1.1-1.8-2.5-2.1-3.7
							c-0.3-1.2-0.2-2.2-0.1-2.8c0.1-0.3,0.1-0.6,0.2-0.8c0.1-0.2,0.1-0.3,0.1-0.3c0.1,0-0.5,1.5,0.1,3.8c0.3,1.1,1,2.4,2.1,3.5
							c1.1,1.1,2.8,1.7,4.6,1.8c1.8,0,3.5-0.6,4.7-1.6c1.2-1,1.9-2.3,2.3-3.4C333.7,198.7,333.1,197.2,333.2,197.2z"/>
					</g>
				</g>
				<g>
					<g>
						<path class="st6" d="M341.8,217.1c0,0,0.3,0.4,0.7,1.2c0.5,1,1,1.9,1.5,3c0.5,1,1,2,1.5,3c0.4,0.8,0.6,1.2,0.6,1.3
							c0,0-0.3-0.4-0.8-1.2c-0.4-0.7-1-1.8-1.6-2.9c-0.6-1.2-1.1-2.2-1.4-3C342,217.6,341.8,217.1,341.8,217.1z"/>
					</g>
				</g>
			</g>
			<g>
				<g>
					<g>
						<g>
							<g>
								<g>
									<path class="st7" d="M373.5,428.9l-1.6-9.1l-17,2.9l2.2,13.3l1.1-0.1c4.7-0.5,24-3.1,27-4.6
										C388.5,429.6,373.5,428.9,373.5,428.9z"/>
								</g>
							</g>
						</g>
						<g>
							<g>
								<g>
									<path class="st7" d="M363.3,434.8c-0.5-1.4-1.5-2.6-2.8-3.2c-1.3-0.7-2.8-0.9-4.2-0.5l0.8,4.7L363.3,434.8z"/>
								</g>
							</g>
						</g>
					</g>
					<g>
						<g>
							<g>
								<path class="st7" d="M380.9,429.5c0,0,5.3,0.6,4.8,1.5c-0.5,0.9-19.9,4.3-28.5,5l0-0.4l22.6-3.7
									C379.8,431.9,379.9,429.7,380.9,429.5z"/>
							</g>
						</g>
					</g>
					<g>
						<g>
							<g>
								<g>
									<path class="st6" d="M356.9,435.7c0,0,0.1,0,0.3,0c0.3,0,0.5-0.1,0.8-0.1c0.8-0.1,1.9-0.2,3.1-0.4
										c2.6-0.4,6.2-0.9,10.2-1.6c4-0.7,7.6-1.4,10.2-1.9c1.2-0.3,2.2-0.5,3.1-0.7c0.3-0.1,0.6-0.1,0.8-0.2c0.2,0,0.3-0.1,0.3-0.1
										c0,0-0.1,0-0.3,0c-0.3,0-0.5,0.1-0.8,0.2c-0.8,0.2-1.9,0.4-3.1,0.6c-2.6,0.5-6.2,1.2-10.2,1.9c-4,0.7-7.6,1.2-10.2,1.6
										c-1.2,0.2-2.3,0.3-3.1,0.5c-0.3,0-0.6,0.1-0.8,0.1C357,435.6,356.9,435.7,356.9,435.7z"/>
								</g>
							</g>
						</g>
					</g>
					<g>
						<g>
							<g>
								<g>
									<path class="st6" d="M379.8,432.2c0.1,0,0-0.7,0.3-1.6c0.3-0.8,0.9-1.3,0.8-1.4c0,0-0.7,0.4-1,1.3
										C379.6,431.4,379.8,432.2,379.8,432.2z"/>
								</g>
							</g>
						</g>
					</g>
					<g>
						<g>
							<g>
								<g>
									
										<ellipse transform="matrix(0.385 -0.9229 0.9229 0.385 -166.16 610.1266)" class="st6" cx="374.7" cy="429.7" rx="0.8" ry="0.1"/>
								</g>
							</g>
						</g>
					</g>
					<g>
						<g>
							<g>
								<g>
									
										<ellipse transform="matrix(0.6198 -0.7848 0.7848 0.6198 -195.0852 456.2717)" class="st6" cx="373.3" cy="429.5" rx="0.7" ry="0.1"/>
								</g>
							</g>
						</g>
					</g>
					<g>
						<g>
							<g>
								<g>
									
										<ellipse transform="matrix(0.9874 -0.1585 0.1585 0.9874 -63.1873 64.465)" class="st6" cx="372.6" cy="428.4" rx="0.9" ry="0.1"/>
								</g>
							</g>
						</g>
					</g>
					<g>
						<g>
							<g>
								<g>
									<path class="st6" d="M371.2,427.5c0,0.1,0.5,0.2,1,0.1c0.6-0.1,1-0.3,1-0.3c0-0.1-0.5,0.1-1,0.1
										C371.7,427.5,371.2,427.4,371.2,427.5z"/>
								</g>
							</g>
						</g>
					</g>
					<g>
						<g>
							<g>
								<g>
									<path class="st6" d="M374.7,428.9c0,0,0.4,0,1.1-0.2c0.3-0.1,0.7-0.2,1.1-0.5c0.2-0.1,0.4-0.2,0.6-0.4
										c0.1-0.1,0.2-0.2,0.2-0.4c0-0.2-0.1-0.3-0.2-0.4c-1.1-0.4-2.1,0.4-2.4,1c-0.2,0.3-0.2,0.6-0.2,0.8c0,0.2,0,0.3,0,0.3
										c0,0,0-0.4,0.3-1c0.2-0.3,0.4-0.6,0.8-0.8c0.4-0.2,0.9-0.3,1.3-0.1c0.2,0.1,0.2,0.3,0,0.5c-0.2,0.1-0.4,0.3-0.6,0.4
										c-0.4,0.2-0.8,0.4-1.1,0.5C375.1,428.8,374.7,428.9,374.7,428.9z"/>
								</g>
							</g>
						</g>
					</g>
					<g>
						<g>
							<g>
								<g>
									<path class="st6" d="M375,428.9c0,0,0.1-0.3,0-0.8c-0.1-0.2-0.2-0.5-0.4-0.7c-0.2-0.2-0.5-0.5-1-0.4
										c-0.2,0.1-0.3,0.4-0.2,0.6c0.1,0.2,0.2,0.3,0.3,0.5c0.2,0.2,0.4,0.4,0.6,0.6C374.6,428.9,374.9,429,375,428.9
										c-0.1,0-0.3-0.2-0.7-0.5c-0.2-0.1-0.4-0.3-0.6-0.6c-0.2-0.2-0.4-0.6-0.1-0.7c0.3-0.1,0.6,0.2,0.8,0.3
										c0.2,0.2,0.4,0.4,0.4,0.7C375,428.6,374.9,428.9,375,428.9z"/>
								</g>
							</g>
						</g>
					</g>
					<g>
						<g>
							<g>
								<g>
									<path class="st6" d="M356.4,431c0,0,0.5-0.1,1.3-0.2c0.8,0,1.9,0.1,2.9,0.7c1,0.6,1.7,1.4,2.1,2.1c0.4,0.7,0.5,1.2,0.5,1.2
										c0,0,0-0.1-0.1-0.3c-0.1-0.2-0.2-0.5-0.3-0.9c-0.4-0.7-1.1-1.6-2.2-2.2c-1.1-0.6-2.2-0.7-3-0.6c-0.4,0-0.7,0.1-0.9,0.2
										C356.5,430.9,356.4,430.9,356.4,431z"/>
								</g>
							</g>
						</g>
					</g>
					<g>
						<g>
							<g>
								<g>
									
										<ellipse transform="matrix(0.9876 -0.1571 0.1571 0.9876 -62.6395 61.45)" class="st6" cx="357.5" cy="427.1" rx="0.1" ry="3.5"/>
								</g>
							</g>
						</g>
					</g>
					<g>
						<g>
							<g>
								<g>
									<path class="st6" d="M365.2,432.8c0,0.1,1.1,0,2.5-0.2c1.4-0.2,2.5-0.6,2.4-0.6c0-0.1-1.1,0.2-2.5,0.4
										C366.3,432.6,365.2,432.7,365.2,432.8z"/>
								</g>
							</g>
						</g>
					</g>
					<g>
						<g>
							<g>
								<g>
									<path class="st6" d="M361.8,433.4c0,0,0.1,0.2,0.3,0.5c0.2,0.2,0.3,0.4,0.3,0.4c0.1,0,0-0.3-0.1-0.6
										C362.1,433.4,361.9,433.3,361.8,433.4z"/>
								</g>
							</g>
						</g>
					</g>
					<g>
						<g>
							<g>
								<g>
									
										<ellipse transform="matrix(0.5825 -0.8128 0.8128 0.5825 -200.7913 473.628)" class="st6" cx="360.7" cy="432.3" rx="0.1" ry="0.5"/>
								</g>
							</g>
						</g>
					</g>
					<g>
						<g>
							<g>
								<g>
									<path class="st6" d="M358.4,431.6c0,0.1,0.2,0,0.5,0.1c0.3,0,0.5,0.1,0.5,0.1c0,0-0.1-0.3-0.5-0.3
										C358.6,431.4,358.4,431.6,358.4,431.6z"/>
								</g>
							</g>
						</g>
					</g>
					<g>
						<g>
							<g>
								<g>
									
										<ellipse transform="matrix(0.198 -0.9802 0.9802 0.198 -136.4261 696.3647)" class="st6" cx="357.3" cy="431.6" rx="0.1" ry="0.3"/>
								</g>
							</g>
						</g>
					</g>
				</g>
			</g>
			<g>
				<g>
					<path class="st9" d="M355.9,273.7c0,0,54.6,9.2,50.3,25.6c-4.3,16.3-36.6,56-36.6,56l-20.4-12.9c0,0,30.2-37.5,29.1-38.8
						c-1.2-1.2-42.5-10.2-42.5-10.2l-9.2-23.7L355.9,273.7z"/>
				</g>
				<g>
					<g>
						<g>
							
								<ellipse transform="matrix(0.185 -0.9827 0.9827 0.185 -6.974 571.616)" class="st6" cx="341.1" cy="290" rx="0.3" ry="0.8"/>
						</g>
					</g>
					<g>
						<g>
							
								<ellipse transform="matrix(0.1999 -0.9798 0.9798 0.1999 -8.1599 572.0112)" class="st6" cx="346.2" cy="291" rx="0.3" ry="1.5"/>
						</g>
					</g>
					<g>
						<g>
							
								<ellipse transform="matrix(0.2168 -0.9762 0.9762 0.2168 -9.6767 572.3758)" class="st6" cx="351.9" cy="292.2" rx="0.3" ry="1.5"/>
						</g>
					</g>
					<g>
						<g>
							
								<ellipse transform="matrix(0.2336 -0.9723 0.9723 0.2336 -11.3818 572.6265)" class="st6" cx="357.6" cy="293.5" rx="0.3" ry="1.5"/>
						</g>
					</g>
					<g>
						<g>
							
								<ellipse transform="matrix(0.2504 -0.9681 0.9681 0.2504 -13.2766 572.7454)" class="st6" cx="363.2" cy="294.9" rx="0.3" ry="1.5"/>
						</g>
					</g>
					<g>
						<g>
							
								<ellipse transform="matrix(0.2671 -0.9637 0.9637 0.2671 -15.3308 572.757)" class="st6" cx="368.9" cy="296.5" rx="0.3" ry="1.5"/>
						</g>
					</g>
					<g>
						<g>
							
								<ellipse transform="matrix(0.2837 -0.9589 0.9589 0.2837 -17.5731 572.6048)" class="st6" cx="374.5" cy="298.1" rx="0.3" ry="1.5"/>
						</g>
					</g>
					<g>
						<g>
							
								<ellipse transform="matrix(0.3003 -0.9539 0.9539 0.3003 -19.9881 572.2919)" class="st6" cx="380.1" cy="299.8" rx="0.3" ry="1.5"/>
						</g>
					</g>
					<g>
						<g>
							<path class="st6" d="M382.9,304.5c-0.1-0.1,0.2-0.7,0.6-1.3c0.4-0.7,0.2-1.2,0.3-1.3c0.1,0,0.2,0.1,0.3,0.4
								c0.1,0.3,0.1,0.7-0.1,1.1C383.5,304.1,383,304.5,382.9,304.5z"/>
						</g>
					</g>
					<g>
						<g>
							
								<ellipse transform="matrix(0.5927 -0.8055 0.8055 0.5927 -93.158 431.7876)" class="st6" cx="380.3" cy="308" rx="1.5" ry="0.3"/>
						</g>
					</g>
					<g>
						<g>
							
								<ellipse transform="matrix(0.5926 -0.8055 0.8055 0.5926 -98.3532 430.9232)" class="st6" cx="376.9" cy="312.7" rx="1.5" ry="0.3"/>
						</g>
					</g>
					<g>
						<g>
							
								<ellipse transform="matrix(0.5926 -0.8055 0.8055 0.5926 -103.5484 430.0578)" class="st6" cx="373.4" cy="317.4" rx="1.5" ry="0.3"/>
						</g>
					</g>
					<g>
						<g>
							
								<ellipse transform="matrix(0.5926 -0.8055 0.8055 0.5926 -108.746 429.1787)" class="st6" cx="369.9" cy="322.1" rx="1.5" ry="0.3"/>
						</g>
					</g>
					<g>
						<g>
							
								<ellipse transform="matrix(0.5927 -0.8055 0.8055 0.5927 -113.9426 428.3005)" class="st6" cx="366.5" cy="326.8" rx="1.5" ry="0.3"/>
						</g>
					</g>
					<g>
						<g>
							
								<ellipse transform="matrix(0.5926 -0.8055 0.8055 0.5926 -119.1351 427.4429)" class="st6" cx="363" cy="331.5" rx="1.5" ry="0.3"/>
						</g>
					</g>
					<g>
						<g>
							
								<ellipse transform="matrix(0.5926 -0.8055 0.8055 0.5926 -124.3314 426.571)" class="st6" cx="359.6" cy="336.2" rx="1.5" ry="0.3"/>
						</g>
					</g>
					<g>
						<g>
							
								<ellipse transform="matrix(0.5927 -0.8054 0.8054 0.5927 -128.9009 425.788)" class="st6" cx="356.5" cy="340.3" rx="0.8" ry="0.3"/>
						</g>
					</g>
				</g>
				<g>
					<g>
						
							<ellipse transform="matrix(0.9467 -0.322 0.322 0.9467 -77.0735 139.0106)" class="st6" cx="381.6" cy="302.5" rx="3.7" ry="0.3"/>
					</g>
				</g>
				<g>
					<g>
						<path class="st6" d="M385.9,303.1c0,0.1-1.8,0.5-4,0.7c-2.2,0.2-4.1,0.1-4.1-0.1c0-0.1,1.8-0.3,4-0.5
							C384,303.2,385.8,303,385.9,303.1z"/>
					</g>
				</g>
				<g>
					<path class="st6" d="M369.9,356.7l-12.3-8c0,0-1-10.2-3.3-12.8l19.6,15.7L369.9,356.7z"/>
				</g>
			</g>
			<g>
				<g>
					<path class="st9" d="M298,272c0,0-3.4,10.7,7.5,26.8l36.4,56.3l8.2,73.2l27-2.4l-9.1-81.1L329.6,273L298,272z"/>
				</g>
				<g>
					<g>
						<g>
							<path class="st6" d="M300.8,274c-0.1,0-0.3-0.3-0.3-0.8c0-0.4,0.1-0.8,0.3-0.7c0.1,0,0.3,0.4,0.3,0.8
								C301.1,273.7,300.9,274,300.8,274z"/>
						</g>
					</g>
					<g>
						<g>
							
								<ellipse transform="matrix(0.9787 -0.2055 0.2055 0.9787 -50.8058 67.8945)" class="st6" cx="301.4" cy="278.5" rx="0.3" ry="1.5"/>
						</g>
					</g>
					<g>
						<g>
							
								<ellipse transform="matrix(0.9348 -0.3552 0.3552 0.9348 -81.2088 126.2036)" class="st6" cx="303.1" cy="284.3" rx="0.3" ry="1.5"/>
						</g>
					</g>
					<g>
						<g>
							<path class="st6" d="M306.4,291.1c-0.1,0.1-0.6-0.5-1-1.2c-0.4-0.7-0.6-1.4-0.5-1.5c0.1-0.1,0.5,0.5,0.9,1.2
								C306.3,290.4,306.5,291,306.4,291.1z"/>
						</g>
					</g>
					<g>
						<g>
							
								<ellipse transform="matrix(0.8442 -0.536 0.536 0.8442 -109.9978 211.4362)" class="st6" cx="308.7" cy="294.9" rx="0.3" ry="1.5"/>
						</g>
					</g>
					<g>
						<g>
							
								<ellipse transform="matrix(0.8346 -0.5509 0.5509 0.8346 -113.6554 221.5178)" class="st6" cx="312" cy="300" rx="0.3" ry="1.5"/>
						</g>
					</g>
					<g>
						<g>
							
								<ellipse transform="matrix(0.83 -0.5578 0.5578 0.83 -116.5196 227.7525)" class="st6" cx="315.4" cy="305" rx="0.3" ry="1.5"/>
						</g>
					</g>
					<g>
						<g>
							
								<ellipse transform="matrix(0.8274 -0.5616 0.5616 0.8274 -119.0987 232.5148)" class="st6" cx="318.7" cy="310" rx="0.3" ry="1.5"/>
						</g>
					</g>
					<g>
						<g>
							
								<ellipse transform="matrix(0.8259 -0.5638 0.5638 0.8259 -121.5235 236.4543)" class="st6" cx="322.1" cy="315" rx="0.3" ry="1.5"/>
						</g>
					</g>
					<g>
						<g>
							
								<ellipse transform="matrix(0.8252 -0.5649 0.5649 0.8252 -123.8438 239.8319)" class="st6" cx="325.5" cy="320" rx="0.3" ry="1.5"/>
						</g>
					</g>
					<g>
						<g>
							
								<ellipse transform="matrix(0.8251 -0.5651 0.5651 0.8251 -126.0764 242.7218)" class="st6" cx="328.9" cy="325" rx="0.3" ry="1.5"/>
						</g>
					</g>
					<g>
						<g>
							
								<ellipse transform="matrix(0.8256 -0.5642 0.5642 0.8256 -128.2101 245.0645)" class="st6" cx="332.3" cy="329.9" rx="0.3" ry="1.5"/>
						</g>
					</g>
					<g>
						<g>
							
								<ellipse transform="matrix(0.8271 -0.5621 0.5621 0.8271 -130.1992 246.6235)" class="st6" cx="335.7" cy="334.9" rx="0.3" ry="1.5"/>
						</g>
					</g>
					<g>
						<g>
							
								<ellipse transform="matrix(0.8302 -0.5575 0.5575 0.8302 -131.9164 246.7771)" class="st6" cx="339.1" cy="339.9" rx="0.3" ry="1.5"/>
						</g>
					</g>
					<g>
						<g>
							
								<ellipse transform="matrix(0.8373 -0.5467 0.5467 0.8373 -132.878 243.3307)" class="st6" cx="342.5" cy="345" rx="0.3" ry="1.5"/>
						</g>
					</g>
					<g>
						<g>
							<path class="st6" d="M346.3,351.4c-0.1,0-0.5-0.5-0.9-1.2c-0.4-0.7-0.7-1.4-0.5-1.4c0.1-0.1,0.6,0.4,1,1.2
								C346.3,350.7,346.5,351.4,346.3,351.4z"/>
						</g>
					</g>
					<g>
						<g>
							
								<ellipse transform="matrix(0.9937 -0.112 0.112 0.9937 -37.6667 41.0731)" class="st6" cx="346.9" cy="355.9" rx="0.3" ry="1.5"/>
						</g>
					</g>
					<g>
						<g>
							
								<ellipse transform="matrix(0.9943 -0.1064 0.1064 0.9943 -36.5305 39.0278)" class="st6" cx="347.5" cy="361.9" rx="0.3" ry="1.5"/>
						</g>
					</g>
					<g>
						<g>
							
								<ellipse transform="matrix(0.9945 -0.1043 0.1043 0.9945 -36.4623 38.308)" class="st6" cx="348.2" cy="367.9" rx="0.3" ry="1.5"/>
						</g>
					</g>
					<g>
						<g>
							
								<ellipse transform="matrix(0.9947 -0.1031 0.1031 0.9947 -36.6751 37.9362)" class="st6" cx="348.8" cy="373.9" rx="0.3" ry="1.5"/>
						</g>
					</g>
					<g>
						<g>
							
								<ellipse transform="matrix(0.9948 -0.1023 0.1023 0.9948 -37.0139 37.7195)" class="st6" cx="349.4" cy="379.9" rx="0.3" ry="1.5"/>
						</g>
					</g>
					<g>
						<g>
							
								<ellipse transform="matrix(0.9948 -0.1016 0.1016 0.9948 -37.4087 37.5744)" class="st6" cx="350" cy="385.9" rx="0.3" ry="1.5"/>
						</g>
					</g>
					<g>
						<g>
							
								<ellipse transform="matrix(0.9949 -0.1011 0.1011 0.9949 -37.841 37.4764)" class="st6" cx="350.6" cy="391.9" rx="0.3" ry="1.5"/>
						</g>
					</g>
					<g>
						<g>
							
								<ellipse transform="matrix(0.9949 -0.1008 0.1008 0.9949 -38.3186 37.4322)" class="st6" cx="351.2" cy="397.9" rx="0.3" ry="1.5"/>
						</g>
					</g>
					<g>
						<g>
							
								<ellipse transform="matrix(0.9949 -0.1005 0.1005 0.9949 -38.7947 37.3898)" class="st6" cx="351.9" cy="403.9" rx="0.3" ry="1.5"/>
						</g>
					</g>
					<g>
						<g>
							
								<ellipse transform="matrix(0.995 -0.1001 0.1001 0.995 -39.2778 37.3582)" class="st6" cx="352.5" cy="409.9" rx="0.3" ry="1.5"/>
						</g>
					</g>
					<g>
						<g>
							
								<ellipse transform="matrix(0.995 -9.990295e-02 9.990295e-02 0.995 -39.7832 37.3524)" class="st6" cx="353.1" cy="415.9" rx="0.3" ry="1.5"/>
						</g>
					</g>
					<g>
						<g>
							
								<ellipse transform="matrix(0.995 -9.961531e-02 9.961531e-02 0.995 -40.2692 37.3287)" class="st6" cx="353.7" cy="421.9" rx="0.3" ry="1.5"/>
						</g>
					</g>
					<g>
						<g>
							
								<ellipse transform="matrix(0.9951 -9.925225e-02 9.925225e-02 0.9951 -40.6487 37.2632)" class="st6" cx="354.2" cy="427.2" rx="0.3" ry="0.7"/>
						</g>
					</g>
				</g>
				<g>
					<g>
						<path class="st6" d="M368.9,353.6c-0.1,0-0.2-1.5-0.6-3.8c-0.4-2.3-1.1-5.5-2.4-8.9c-1.3-3.4-3-6.2-4.2-8.2
							c-1.2-2-2-3.3-2-3.3c0,0,0.3,0.3,0.7,0.8c0.4,0.5,1,1.3,1.6,2.3c1.3,2,3.1,4.8,4.4,8.2c1.3,3.4,2,6.7,2.3,9
							c0.1,1.2,0.2,2.1,0.3,2.8C369,353.2,369,353.6,368.9,353.6z"/>
					</g>
				</g>
				<g>
					<polygon class="st6" points="348.6,424.5 349.4,429.2 377.9,426 377.1,420.3 					"/>
				</g>
				<g>
					<g>
						<path class="st6" d="M333.3,269.9c0,0,0,0.7-0.1,1.9c-0.1,1.2-0.2,2.9-0.4,5l0-0.1c0.6,1.9,1.6,4.2,2.8,6.5
							c1.7,3.4,3.4,6.5,4.5,8.8c0.6,1.1,1,2.1,1.2,2.7c0.3,0.7,0.4,1,0.4,1c0,0-0.2-0.3-0.6-1c-0.4-0.7-0.8-1.6-1.4-2.6
							c-1.2-2.2-2.9-5.3-4.6-8.7c-1.2-2.3-2.2-4.6-2.8-6.6l0,0l0,0c0.2-2,0.4-3.7,0.6-4.9C333.2,270.6,333.3,269.9,333.3,269.9z"/>
					</g>
				</g>
			</g>
			<g>
				<g>
					<g>
						<path class="st10" d="M368.1,258.7c-0.1-2.2-5.5-4-7.7-4.6l0,0l-0.7-0.1c-0.1,0-0.2-0.1-0.2-0.1l0,0l-41.3-8.8l-4.6-16.1
							h-14.9c0.4,0.7,3.4,27.3,11.5,29.2c8,1.9,42.4,4.7,42.4,4.7s1.1,0.1,2.6,0.3c0,0,0,0,0,0.1c0,1.4,1.5,1.5,3.1,1.6
							c4,0.2,5.1-1.5,5.1-1.5l0,0c1.2-0.9,2.2-2.7,2.2-2.7s0.9,2.7,1.3,4.3c0.5,2.3,1.4,2,1.4,2S368.2,260.3,368.1,258.7z"/>
					</g>
					<g>
						<g>
							
								<ellipse transform="matrix(8.350781e-02 -0.9965 0.9965 8.350781e-02 65.7206 598.248)" class="st11" cx="358.1" cy="263.4" rx="0.3" ry="3.1"/>
						</g>
					</g>
					<g>
						<g>
							<path class="st11" d="M362.4,261.8c0,0,0.1-0.1,0.4,0c0.2,0,0.6,0.2,0.8,0.6c0.2,0.4,0.1,0.8-0.1,1c-0.2,0.2-0.4,0.2-0.4,0.1
								c0,0,0.1-0.1,0.2-0.3c0.1-0.2,0.2-0.4,0-0.7C363,261.9,362.4,261.9,362.4,261.8z"/>
						</g>
					</g>
					<g>
						<g>
							<path class="st11" d="M364,259.9c0-0.1,0.7-0.1,0.9,0.6c0.3,0.7-0.2,1.2-0.3,1.1c-0.1,0,0.2-0.5,0-1
								C364.4,260.1,364,260,364,259.9z"/>
						</g>
					</g>
				</g>
				<g>
					<path class="st9" d="M361.2,254.4l4-7.2c0.6-0.1,0.9,0,1,0.4l-3.9,7.2L361.2,254.4z"/>
				</g>
				<g>
					<polygon class="st9" points="356.6,263.1 355,266.1 355,267.7 356.6,266.6 358.4,263.4 					"/>
				</g>
			</g>
			<g>
				<g>
					<g>
						<path class="st6" d="M305.9,168.5c0,0-0.3-0.2-0.6-0.8c-0.3-0.6-0.6-1.5-0.5-2.6c0-1.1,0.5-2.5,1.3-3.8
							c0.8-1.2,2.1-2.5,3.7-3.1c1.6-0.7,3.5-0.6,4.8,0.1c1.4,0.7,2.3,1.9,2.5,3.1c0.3,1.1,0,2.1-0.2,2.7c-0.3,0.6-0.6,0.8-0.6,0.8
							c0,0,0.2-0.3,0.4-0.9c0.2-0.6,0.4-1.5,0.1-2.5c-0.3-1-1.1-2.1-2.4-2.7c-1.3-0.6-2.9-0.7-4.4-0.1c-1.5,0.6-2.7,1.7-3.5,2.9
							c-0.8,1.2-1.2,2.4-1.3,3.5c-0.1,1.1,0.1,2,0.4,2.5C305.7,168.2,305.9,168.5,305.9,168.5z"/>
					</g>
				</g>
				<g>
					<g>
						<path class="st10" d="M333.2,199.3c0.1-4.1,0.2-8.3,0.2-8.3s4.9-0.7,6-7.4c1.1-6.5,0.3-21.5,0.3-21.5l0,0
							c-7-3.3-15.3-1.6-20.4,4.2l0,0l-0.1,32.9c0,3.8,3,6.9,6.9,7h0C330,206.3,333.2,203.2,333.2,199.3z"/>
					</g>
					<g>
						<g>
							
								<ellipse transform="matrix(0.9999 -1.731183e-02 1.731183e-02 0.9999 -2.9463 5.865)" class="st6" cx="337.3" cy="173.1" rx="0.8" ry="0.8"/>
						</g>
						<g>
							<g>
								<path class="st6" d="M339.4,172.2c-0.1,0.1-0.7-0.4-1.6-0.4c-0.9,0-1.5,0.4-1.6,0.3c0-0.1,0.1-0.3,0.3-0.5
									c0.3-0.2,0.8-0.4,1.3-0.4c0.5,0,1,0.3,1.3,0.5C339.4,171.9,339.5,172.1,339.4,172.2z"/>
							</g>
						</g>
					</g>
					<g>
						<g>
							
								<ellipse transform="matrix(0.9999 -1.731183e-02 1.731183e-02 0.9999 -2.9477 5.6998)" class="st6" cx="327.7" cy="173.1" rx="0.8" ry="0.8"/>
						</g>
						<g>
							<g>
								<path class="st6" d="M329.7,172.3c-0.1,0.1-0.7-0.4-1.6-0.4c-0.9,0-1.5,0.4-1.6,0.3c0-0.1,0.1-0.3,0.3-0.5
									c0.3-0.2,0.8-0.4,1.3-0.4c0.5,0,1,0.3,1.3,0.5C329.7,172.1,329.8,172.3,329.7,172.3z"/>
							</g>
						</g>
					</g>
					<g>
						<g>
							<path class="st6" d="M333,179.9c0-0.1,0.5-0.1,1.4-0.2c0.2,0,0.4-0.1,0.5-0.2c0.1-0.2,0-0.4-0.1-0.7
								c-0.2-0.6-0.4-1.2-0.6-1.9c-0.9-2.6-1.5-4.8-1.4-4.8c0.1,0,0.9,2.1,1.8,4.7c0.2,0.7,0.4,1.3,0.6,1.9c0.1,0.3,0.2,0.6,0.1,0.9
								c-0.1,0.2-0.2,0.3-0.4,0.3c-0.1,0-0.3,0-0.4,0C333.6,180,333,179.9,333,179.9z"/>
						</g>
					</g>
					<g>
						<path class="st11" d="M333.4,191c0,0-4.3,0.1-8.5-2.8c0,0,2,4.8,8.4,4.4L333.4,191z"/>
					</g>
					<g>
						<path class="st11" d="M332.7,182.2c-0.1-0.6-0.5-1-1-1.3c-0.4-0.1-0.8-0.2-1.1,0c-0.3,0.2-0.6,0.6-0.5,1
							c0.1,0.4,0.5,0.7,0.9,0.8c0.4,0.1,0.9,0,1.3-0.1c0.1,0,0.2-0.1,0.3-0.1C332.7,182.5,332.7,182.4,332.7,182.2"/>
					</g>
					<g>
						<g>
							<path class="st6" d="M330.5,179.9c0.1,0,0.1,1,0.9,1.8c0.8,0.8,1.8,0.7,1.8,0.8c0,0.1-0.2,0.2-0.7,0.2c-0.4,0-1-0.2-1.5-0.6
								c-0.5-0.5-0.7-1.1-0.7-1.5C330.3,180.1,330.5,179.8,330.5,179.9z"/>
						</g>
					</g>
				</g>
				<g>
					<path class="st6" d="M323.1,161.6c2.2,3.9,8.2,8.2,12.6,9.3c-0.5-0.8-3.1-2.9-3.6-3.7c1.9,1.8,4.7,4.3,7.4,4.5
						c0.3,0,0.7,0,0.9-0.1c0.4-0.2,0.4-0.7,0.5-1.1c0.2-1.8,0.2-4.9,0-6.7c-0.2-1.8-0.8-3.6-2.1-4.9c-1.6-1.6-4.1-2.1-6.3-2.2
						c-1.9-0.1-3.9-0.1-5.7,0.6c-1.8,0.7-3.3,2.2-3.7,4.1"/>
				</g>
				<g>
					<path class="st6" d="M324.6,162.4c0,0,1.9,7.7-3,12.8c0,0-0.7,7.2-4.1,10.7c0,0-1.8-8.8-1.9-12.3c-0.1-3.4-1.6-16,9.7-14.5
						L324.6,162.4z"/>
				</g>
				<g>
					<path class="st6" d="M316.9,167.9c0.9-2,0.5-4.5-1-6.2c-1.4-1.7-3.7-2.5-5.9-2.3c-2.2,0.2-4.2,1.4-5.6,3.1
						c-1.1,1.3-1.9,3-1.8,4.7c0.1,2.3,1.7,4.4,3.8,5.4c2.1,0.9,4.6,0.8,6.7-0.2c2.1-0.9,3.8-2.6,5.1-4.6"/>
				</g>
				<g>
					<polygon class="st7" points="309.1,162.4 305.9,156.1 305.9,154.9 307,155.5 310.3,161.9 					"/>
				</g>
				<g>
					<path class="st7" d="M311.4,161.9c0-0.1,0-7.6,0-7.6s0.1-0.6,0.7-0.5c0.6,0.1,0.6,0.6,0.6,0.6v7.7L311.4,161.9z"/>
					<path class="st12" d="M311.4,161.9c0-0.1,0-7.6,0-7.6s0.1-0.6,0.7-0.5c0.6,0.1,0.6,0.6,0.6,0.6v7.7L311.4,161.9z"/>
				</g>
				<g>
					<polygon class="st7" points="311.7,161.9 311.7,154.2 312.2,154.2 312.2,161.9 					"/>
				</g>
				<g>
					<path class="st9" d="M311.4,154.3l1.3,0c0,0-0.1-0.6-0.6-0.6C311.6,153.7,311.5,154,311.4,154.3z"/>
				</g>
				<g>
					<path class="st9" d="M305.9,156.1c0,0,0.2,0.1,0.4,0c0.2-0.1,0.2-0.3,0.2-0.3s0.3,0.1,0.5,0c0.1-0.1,0-0.3,0-0.3l-0.8-0.4
						l-0.3,0.2V156.1z"/>
				</g>
				<g>
					<g>
						<path class="st6" d="M315.8,164.3c0,0,0.3,0.4,0.5,1.2c0.2,0.8,0.4,2,0.1,3.5c-0.3,1.5-1.2,3.1-2.8,4.3
							c-1.6,1.2-3.9,1.9-6.1,1.2c-1.1-0.3-2.1-0.8-2.9-1.6c-0.8-0.7-1.4-1.6-1.7-2.6c-0.7-1.9-0.5-3.8,0.1-5.1
							c0.6-1.4,1.5-2.2,2.1-2.8c0.6-0.5,1-0.8,1-0.7c0,0-0.3,0.3-0.9,0.9c-0.6,0.6-1.4,1.5-1.9,2.8c-0.6,1.3-0.7,3.1,0,4.8
							c0.7,1.7,2.3,3.3,4.4,3.8c2.1,0.6,4.2,0,5.7-1.1c1.5-1.1,2.4-2.7,2.7-4c0.3-1.4,0.2-2.6,0.1-3.4
							C315.9,164.7,315.8,164.3,315.8,164.3z"/>
					</g>
				</g>
				<g>
					<g>
						<path class="st6" d="M330.9,167.6c0.1,0-0.2,0.6-1.1,0.9c-0.4,0.1-1,0.1-1.6-0.1c-0.6-0.2-1.1-0.6-1.6-1c-1-0.9-1.7-1.9-2-2.7
							c-0.3-0.8-0.4-1.3-0.4-1.3c0.1-0.1,0.8,2,2.7,3.7c0.9,0.9,2,1.3,2.8,1.2C330.6,168,330.9,167.5,330.9,167.6z"/>
					</g>
				</g>
				<g>
					<path class="st10" d="M321.7,175.1c-0.7-0.2-1.4-0.2-2,0.1c-0.7,0.2-1.2,0.7-1.5,1.3c-0.3,0.6-0.3,1.4-0.1,2
						c0.2,0.7,0.6,1.2,1.1,1.7c0.3,0.4,0.7,0.7,1.2,0.9c0.5,0.2,1,0.1,1.4-0.2"/>
				</g>
				<g>
					<g>
						<path class="st11" d="M321.3,179.2c0.1,0-0.2,0.4-0.8,0.2c-0.3-0.1-0.6-0.4-0.7-0.7c-0.2-0.3-0.3-0.7-0.3-1.1
							c0-0.4,0.1-0.9,0.3-1.2c0.2-0.3,0.6-0.5,0.9-0.5c0.6,0,0.8,0.5,0.8,0.5c-0.1,0.1-0.3-0.2-0.7-0.1c-0.4,0.1-0.8,0.6-0.7,1.3
							c0.1,0.7,0.3,1.3,0.7,1.5C320.9,179.3,321.2,179.1,321.3,179.2z"/>
					</g>
				</g>
				<g>
					<g>
						<path class="st7" d="M319,180.5c0.1,0-0.3,0.4-0.3,1.1c0,0.3,0.1,0.8,0.4,1.1c0.3,0.3,0.8,0.5,1.3,0.4
							c0.5-0.1,0.8-0.5,0.9-0.9c0.1-0.4,0-0.8-0.2-1.2c-0.4-0.6-0.8-0.9-0.8-0.9c0-0.1,0.6,0,1.1,0.7c0.2,0.3,0.4,0.9,0.3,1.4
							c-0.1,0.6-0.6,1.2-1.3,1.3c-0.7,0.2-1.4-0.1-1.7-0.6c-0.4-0.4-0.5-1-0.4-1.4C318.5,180.7,319,180.4,319,180.5z"/>
					</g>
				</g>
				<g>
					<g>
						<path class="st6" d="M315,169.8c-0.1,0.1-0.7-1.4-0.3-3.3c0.4-1.9,1.5-3,1.6-2.9c0.1,0.1-0.7,1.3-1.1,3
							C314.8,168.4,315.2,169.8,315,169.8z"/>
					</g>
				</g>
			</g>
		</g>
		<g>
			<g>
				<polygon class="st9" points="331.5,269.8 332.6,268.7 360.3,268.7 361.2,269.9 				"/>
			</g>
			<g>
				<g>
					<g>
						<polygon class="st6" points="231.3,272.4 266.5,434.3 270.7,434.3 235,272.4 						"/>
					</g>
					<g>
						<polyline class="st6" points="267.5,272.4 231.3,434.3 234.9,434.3 270.7,272.4 267.5,272.4 						"/>
					</g>
					<g>
						<polygon class="st6" points="238.1,412.8 263.5,412.8 263.5,409.5 239.2,409.5 						"/>
					</g>
				</g>
				<g>
					<g>
						<polygon class="st6" points="440.6,272.4 475.8,434.7 479.9,434.7 444.2,272.4 						"/>
					</g>
					<g>
						<polyline class="st6" points="476.7,272.4 440.6,434.7 444.1,434.7 479.9,272.4 476.7,272.4 						"/>
					</g>
					<g>
						<polygon class="st6" points="447.4,413.2 472.7,413.2 472.7,409.9 448.4,409.9 						"/>
					</g>
				</g>
				<g>
					<g>
						<g>
							<g>
								<polygon class="st6" points="443.2,227.6 428.8,269.8 363.4,269.8 363.9,267.6 390.4,266.8 402.5,227.6 								"/>
							</g>
						</g>
						<g>
							<g>
								<path class="st5" d="M414.3,247.4c-0.4,1.7,0.3,3.4,1.7,3.8c1.3,0.4,2.8-0.7,3.2-2.5c0.4-1.7-0.3-3.4-1.7-3.8
									C416.1,244.6,414.7,245.7,414.3,247.4z"/>
							</g>
						</g>
					</g>
					<g>
						<g>
							<polygon class="st5" points="417.1,256.5 418.5,260 431.9,253.6 430.6,250.1 							"/>
						</g>
						<g>
							<polygon class="st9" points="418.2,256.8 419.1,258.7 430.9,253.2 430.2,250.8 							"/>
						</g>
					</g>
					<g>
						<g>
							<circle class="st5" cx="426.8" cy="237.1" r="4.2"/>
						</g>
						<g>
							<path class="st7" d="M426.1,233.7c-1.5,0.4-2.6,1.9-2.6,3.4c0,1.5,1.2,3,2.7,3.4c0.7,0.2,1.4,0.2,2.1-0.1
								c0.6-0.3,1.1-0.9,1.4-1.5c0.4-0.9,0.6-1.9,0.4-2.8c-0.2-1-1-1.9-2-2.3c-1-0.4-2.1-0.2-3,0.4"/>
						</g>
					</g>
					<g>
						<g>
							<polygon class="st5" points="402.2,255.1 406.3,253.3 409.1,255.5 407,260.5 401.8,258.4 							"/>
						</g>
						<g>
							<polygon class="st7" points="402.5,255.5 406.1,253.8 408.5,255.7 406.7,259.9 402.3,258.2 							"/>
						</g>
					</g>
				</g>
				<g>
					<rect x="211.5" y="269.8" class="st6" width="285.6" height="2.8"/>
				</g>
				<g>
					<g>
						<g>
							<path class="st7" d="M461.5,249.9c-3.1-3.2-5-7.6-5.2-12.1c-0.1-2.2,0.2-4.5,1.7-6.1c1.9-2,5.5-2.1,7.4-0.1c2,2,2,5.2,1.5,8
								c-0.7,4.1-2.8,7.2-5.2,10.6"/>
						</g>
						<g>
							<path class="st7" d="M466.1,249.9c0.8-3.3,2.7-6.2,5.4-8.2c1.3-0.9,2.9-1.7,4.5-1.4c2,0.3,3.5,2.6,3.1,4.6
								c-0.4,2.1-2.4,3.4-4.4,4.2c-2.9,1.2-5.6,1.1-8.8,1.1"/>
						</g>
						<g>
							<g>
								
									<ellipse transform="matrix(2.074637e-02 -0.9998 0.9998 2.074637e-02 202.5722 706.0516)" class="st6" cx="461.7" cy="249.6" rx="9.4" ry="0.3"/>
							</g>
						</g>
						<g>
							<g>
								<path class="st6" d="M475.2,244.3c0,0.1-0.7,0.6-1.9,1.4c-1.2,0.8-2.9,1.9-4.8,3c-1.9,1.1-3.7,2-5,2.7
									c-1.3,0.6-2.1,1-2.2,0.9c0-0.1,0.7-0.5,2-1.3c1.4-0.8,3.1-1.8,4.9-2.8c1.8-1.1,3.5-2,4.9-2.8
									C474.4,244.7,475.2,244.3,475.2,244.3z"/>
							</g>
						</g>
						<g>
							<polyline class="st9" points="452.5,257.5 471.5,258.4 469.6,269.9 454.4,269.9 452.5,257.5 							"/>
						</g>
					</g>
					<g>
						<g>
							<path class="st6" d="M461.8,255.1c0,0.1-1.8-0.2-3.9-1.1c-2.1-0.9-3.6-1.9-3.6-2c0.1-0.1,1.7,0.7,3.8,1.5
								C460.1,254.3,461.8,254.9,461.8,255.1z"/>
						</g>
					</g>
				</g>
			</g>
		</g>
	</g>
</g>
</svg>
